<svg xmlns="http://www.w3.org/2000/svg" viewBox="0 0 1045 428.91"><defs><style>.cls-1,.cls-9{fill:#fff;}.Demand-2,.Supply,.cls-2,.cls-3,.cls-4,.cls-47,.cls-49,.cls-5,.cls-51,.cls-52,.cls-53,.cls-54,.cls-6,.cls-7{fill:none;}.Supply{stroke:#ed1e79;}.Demand-2,.Supply,.cls-2,.cls-3,.cls-4,.cls-47,.cls-49,.cls-5,.cls-51,.cls-52,.cls-53,.cls-54,.cls-6,.cls-7,.cls-9{stroke-miterlimit:10;}.Demand-2,.Supply{stroke-width:3px;}.Demand-2,.cls-49{stroke:#009245;}.cls-2,.cls-3,.cls-4,.cls-5,.cls-51,.cls-52,.cls-53,.cls-54,.cls-6{stroke:#000;}.cls-3{stroke-dasharray:3.92 3.92;}.cls-4{stroke-dasharray:3.94 3.94;}.cls-5{stroke-dasharray:4 4;}.cls-6{stroke-dasharray:4.09 4.09;}.cls-7{stroke:#231f20;}.cls-30,.cls-37,.cls-8{fill:#231f20;}.cls-9{stroke:#b3b3b3;}.cls-10,.cls-11{font-size:17.69px;}.cls-10,.cls-11,.cls-12,.cls-13,.cls-14,.cls-15,.cls-16,.cls-17,.cls-30,.cls-37,.cls-43,.cls-44,.cls-45,.cls-46,.cls-55,.cls-56,.cls-57,.cls-58,.cls-59,.cls-60{font-family:Roboto-Regular, Roboto;}.cls-10{letter-spacing:-0.02em;}.cls-11{letter-spacing:0.01em;}.cls-12,.cls-13,.cls-14,.cls-15,.cls-55,.cls-56,.cls-57,.cls-58,.cls-59,.cls-60{font-size:18px;}.cls-12{letter-spacing:-0.02em;}.cls-13{letter-spacing:0.01em;}.cls-14{letter-spacing:-0.01em;}.cls-15{letter-spacing:-0.03em;}.cls-16,.cls-17{font-size:15.89px;}.cls-16{letter-spacing:0.03em;}.cls-17{letter-spacing:-0.05em;}.cls-18,.cls-61{font-size:40px;font-family:Roboto-Bold, Roboto;font-weight:700;}.cls-18{letter-spacing:0.01em;}.cls-19{letter-spacing:0em;}.cls-20{letter-spacing:0.02em;}.cls-21{letter-spacing:-0.01em;}.cls-22{letter-spacing:0.02em;}.cls-23{letter-spacing:0em;}.cls-24{letter-spacing:0.01em;}.cls-25{letter-spacing:-0.01em;}.cls-26{letter-spacing:0.01em;}.cls-27{letter-spacing:-0.01em;}.cls-28{letter-spacing:-0.01em;}.cls-29{letter-spacing:-0.01em;}.cls-30{font-size:19.87px;letter-spacing:0.01em;}.cls-31{letter-spacing:-0.01em;}.cls-32{letter-spacing:0em;}.cls-33{letter-spacing:-0.01em;}.cls-34{letter-spacing:0em;}.cls-35{letter-spacing:-0.03em;}.cls-36{letter-spacing:0.01em;}.cls-37{font-size:19.87px;letter-spacing:-0.02em;}.cls-38{letter-spacing:0.02em;}.cls-39{letter-spacing:0.01em;}.cls-40{letter-spacing:-0.01em;}.cls-41{letter-spacing:-0.02em;}.cls-42{fill:#ff0;}.cls-43{font-size:21.19px;letter-spacing:0em;}.cls-44,.cls-45,.cls-46{font-size:29.8px;}.cls-44{letter-spacing:0.02em;}.cls-45{letter-spacing:0.01em;}.cls-46{letter-spacing:0.01em;}.cls-47{stroke:red;}.cls-48{fill:red;}.cls-50{fill:#009245;}.cls-51{stroke-dasharray:4.01 4.01;}.cls-52{stroke-dasharray:4.07 4.07;}.cls-53{stroke-dasharray:4.03 4.03;}.cls-54{stroke-dasharray:3.94 3.94;}.cls-55{letter-spacing:-0.02em;}.cls-56{letter-spacing:0.01em;}.cls-57{letter-spacing:-0.01em;}.cls-58{letter-spacing:-0.04em;}.cls-59{letter-spacing:0.01em;}.cls-60{letter-spacing:0.04em;}.cls-61{letter-spacing:-0.01em;}</style></defs><title>demand-elasticity-short-term-long-term</title><g id="demand-elasticity-short-term-long-term"><rect class="cls-1" x="538" width="507" height="427" rx="20" ry="20"/><rect class="cls-1" width="507" height="427" rx="20" ry="20"/><line class="Supply" x1="168.96" y1="390.46" x2="331.77" y2="73.16"/><line class="Demand-2" x1="105.93" y1="86.35" x2="282.14" y2="388.5"/><line class="cls-2" x1="50" y1="285.48" x2="52" y2="285.48"/><line class="cls-3" x1="55.92" y1="285.48" x2="218.68" y2="285.48"/><line class="cls-2" x1="220.64" y1="285.48" x2="222.64" y2="285.48"/><line class="cls-2" x1="174.13" y1="397.99" x2="174.13" y2="395.99"/><line class="cls-4" x1="174.13" y1="392.05" x2="174.13" y2="212.9"/><line class="cls-2" x1="174.13" y1="210.93" x2="174.13" y2="208.93"/><line class="cls-2" x1="222.43" y1="399.37" x2="222.43" y2="397.37"/><line class="cls-5" x1="222.43" y1="393.37" x2="222.43" y2="291.5"/><line class="cls-2" x1="222.43" y1="289.5" x2="222.43" y2="287.5"/><line class="cls-2" x1="51.54" y1="202.86" x2="53.54" y2="202.86"/><line class="cls-6" x1="57.63" y1="202.86" x2="170.12" y2="202.86"/><line class="cls-2" x1="172.16" y1="202.86" x2="174.16" y2="202.86"/><line class="cls-7" x1="48.74" y1="398.85" x2="48.74" y2="14.12"/><path class="cls-8" d="M48.74,8.09a30.22,30.22,0,0,0,4.76,8.55l-4.76-1.72L44,16.63A30.2,30.2,0,0,0,48.74,8.09Z"/><line class="cls-7" x1="49.22" y1="398.85" x2="470.31" y2="398.85"/><path class="cls-8" d="M476.34,398.85a30.22,30.22,0,0,0-8.55,4.76l1.72-4.76-1.72-4.75A30.19,30.19,0,0,0,476.34,398.85Z"/><circle class="cls-9" cx="222.19" cy="285.7" r="1.32"/><text class="cls-10" transform="translate(28.49 206.13) scale(1.02 1)">P</text><text class="cls-11" transform="translate(39.49 212.02) scale(0.59 0.58)">2</text><text class="cls-12" transform="translate(167.58 415.5)">Q</text><text class="cls-13" transform="translate(179.58 421.5) scale(0.58)">2</text><text class="cls-14" transform="translate(215.39 415.5) scale(0.9 1)">Q</text><text class="cls-15" transform="translate(226.39 421.5) scale(0.52 0.58)">1</text><text class="cls-16" transform="translate(28.49 290.01) scale(1.05 1)">P</text><text class="cls-17" transform="translate(39.49 295.3) scale(0.61 0.58)">1</text><text class="cls-18" transform="translate(171.28 26.37) scale(0.58)">I<tspan class="cls-19" x="12.01" y="0">n</tspan><tspan class="cls-20" x="34.31" y="0">e</tspan><tspan class="cls-21" x="56.6" y="0">l</tspan><tspan class="cls-22" x="66.9" y="0">a</tspan><tspan class="cls-23" x="89.19" y="0">s</tspan><tspan class="cls-24" x="109.78" y="0">t</tspan><tspan class="cls-21" x="123.5" y="0">i</tspan><tspan class="cls-25" x="133.79" y="0">c</tspan><tspan class="cls-26" x="154.37" y="0"> </tspan><tspan class="cls-27" x="164.67" y="0">D</tspan><tspan class="cls-20" x="190.39" y="0">e</tspan><tspan class="cls-28" x="212.69" y="0">m</tspan><tspan class="cls-22" x="247" y="0">a</tspan><tspan class="cls-19" x="269.3" y="0">n</tspan><tspan class="cls-29" x="291.6" y="0">d</tspan></text><text class="cls-30" transform="translate(70.42 417.36) scale(0.93 1)">Q<tspan class="cls-31" x="13.94" y="0">u</tspan><tspan class="cls-32" x="24.66" y="0">a</tspan><tspan class="cls-33" x="35.38" y="0">n</tspan><tspan class="cls-34" x="46.1" y="0">t</tspan><tspan class="cls-35" x="52.53" y="0">i</tspan><tspan class="cls-34" x="56.82" y="0">t</tspan><tspan class="cls-36" x="63.25" y="0">y</tspan></text><text class="cls-37" transform="matrix(0.01, -0.99, 1, 0.01, 42.91, 377.61)">P<tspan class="cls-38" x="12.15" y="0">r</tspan><tspan class="cls-39" x="19.23" y="0">i</tspan><tspan class="cls-40" x="24.29" y="0">c</tspan><tspan class="cls-41" x="34.41" y="0">e</tspan></text><rect class="cls-42" x="19.53" y="8.29" width="21.19" height="21.19"/><text class="cls-43" transform="translate(24.58 25.18) scale(1.1 1)">1</text><text class="cls-44" transform="translate(93.89 81.08)">D</text><text class="cls-45" transform="translate(327.53 66.62)">S</text><text class="cls-46" transform="translate(345.53 76.54) scale(0.58)">2</text><line class="Supply" x1="76.96" y1="390.46" x2="239.77" y2="73.16"/><text class="cls-45" transform="translate(235.53 66.62)">S</text><text class="cls-46" transform="translate(253.53 76.54) scale(0.58)">1</text><line class="Supply" x1="767.96" y1="390.46" x2="930.77" y2="73.16"/><line class="Demand-2" x1="624.49" y1="190.74" x2="961.58" y2="284.11"/><text class="cls-44" transform="translate(597.89 198.08)">D</text><text class="cls-45" transform="translate(926.53 66.62)">S</text><text class="cls-46" transform="translate(944.53 76.54) scale(0.58)">2</text><line class="Supply" x1="675.96" y1="390.46" x2="838.77" y2="73.16"/><text class="cls-45" transform="translate(834.53 66.62)">S</text><text class="cls-46" transform="translate(852.53 76.54) scale(0.58)">1</text><g id="Arrow"><line class="cls-47" x1="208.36" y1="408.77" x2="189.83" y2="408.77"/><polygon class="cls-48" points="192.63 405.06 191.06 408.77 192.63 412.47 183.86 408.77 192.63 405.06"/></g><g id="Arrow-2" data-name="Arrow"><line class="cls-49" x1="36.13" y1="270.5" x2="36.13" y2="220.47"/><polygon class="cls-50" points="39.83 223.28 36.13 221.71 32.42 223.28 36.13 214.5 39.83 223.28"/></g><line class="cls-2" x1="579.84" y1="228.31" x2="581.84" y2="228.31"/><line class="cls-51" x1="585.85" y1="228.31" x2="752.06" y2="228.31"/><line class="cls-2" x1="754.06" y1="228.31" x2="756.06" y2="228.31"/><line class="cls-2" x1="839.23" y1="398.04" x2="839.23" y2="396.04"/><line class="cls-52" x1="839.23" y1="391.97" x2="839.23" y2="255.59"/><line class="cls-2" x1="839.23" y1="253.56" x2="839.23" y2="251.56"/><line class="cls-2" x1="759.64" y1="397.92" x2="759.64" y2="395.92"/><line class="cls-53" x1="759.64" y1="391.89" x2="759.64" y2="232.59"/><line class="cls-2" x1="759.64" y1="230.58" x2="759.64" y2="228.58"/><line class="cls-2" x1="579.3" y1="251.52" x2="581.3" y2="251.52"/><line class="cls-54" x1="585.23" y1="251.52" x2="835.32" y2="251.52"/><line class="cls-2" x1="837.28" y1="251.52" x2="839.28" y2="251.52"/><line class="cls-7" x1="578.74" y1="398.85" x2="578.74" y2="14.12"/><path class="cls-8" d="M578.74,8.09a30.22,30.22,0,0,0,4.76,8.55l-4.76-1.72L574,16.63A30.2,30.2,0,0,0,578.74,8.09Z"/><line class="cls-7" x1="579.22" y1="398.85" x2="1000.31" y2="398.85"/><path class="cls-8" d="M1006.34,398.85a30.22,30.22,0,0,0-8.55,4.76l1.72-4.76-1.72-4.75A30.2,30.2,0,0,0,1006.34,398.85Z"/><circle class="cls-9" cx="839.35" cy="250.23" r="1.5"/><ellipse class="cls-9" cx="759.51" cy="228.83" rx="1.49" ry="1.65"/><text class="cls-55" transform="translate(555.49 230.34) scale(1.18 1)">P</text><text class="cls-56" transform="translate(568.49 236.33) scale(0.69 0.58)">2</text><text class="cls-57" transform="translate(754.88 418.03) scale(0.91 1)">Q</text><text class="cls-58" transform="translate(765.88 424.03) scale(0.53 0.58)">2</text><text class="cls-12" transform="translate(831.39 418.03)">Q</text><text class="cls-13" transform="translate(843.39 424.03) scale(0.58)">1</text><text class="cls-59" transform="translate(556.49 253.95) scale(0.96 1)">P</text><text class="cls-60" transform="translate(567.49 259.94) scale(0.56 0.58)">1</text><text class="cls-61" transform="translate(711.28 26.37) scale(0.58)">E<tspan class="cls-21" x="22.3" y="0">l</tspan><tspan class="cls-22" x="32.59" y="0">a</tspan><tspan class="cls-23" x="54.89" y="0">s</tspan><tspan class="cls-24" x="75.47" y="0">t</tspan><tspan class="cls-21" x="89.19" y="0">i</tspan><tspan class="cls-25" x="99.49" y="0">c</tspan><tspan class="cls-26" x="120.07" y="0"> </tspan><tspan class="cls-27" x="130.36" y="0">D</tspan><tspan class="cls-20" x="156.09" y="0">e</tspan><tspan class="cls-28" x="178.39" y="0">m</tspan><tspan class="cls-22" x="212.69" y="0">a</tspan><tspan class="cls-19" x="234.99" y="0">n</tspan><tspan class="cls-29" x="257.29" y="0">d</tspan></text><text class="cls-30" transform="translate(600.42 417.36) scale(0.93 1)">Q<tspan class="cls-31" x="13.94" y="0">u</tspan><tspan class="cls-32" x="24.66" y="0">a</tspan><tspan class="cls-33" x="35.38" y="0">n</tspan><tspan class="cls-34" x="46.1" y="0">t</tspan><tspan class="cls-35" x="52.53" y="0">i</tspan><tspan class="cls-34" x="56.82" y="0">t</tspan><tspan class="cls-36" x="63.25" y="0">y</tspan></text><text class="cls-37" transform="matrix(0.01, -0.99, 1, 0.01, 572.91, 377.61)">P<tspan class="cls-38" x="12.15" y="0">r</tspan><tspan class="cls-39" x="19.23" y="0">i</tspan><tspan class="cls-40" x="24.29" y="0">c</tspan><tspan class="cls-41" x="34.41" y="0">e</tspan></text><rect class="cls-42" x="549.53" y="8.29" width="21.19" height="21.19"/><text class="cls-43" transform="translate(554.58 25.18) scale(1.1 1)">2</text><g id="Arrow-3" data-name="Arrow"><line class="cls-47" x1="827.5" y1="411.77" x2="780.83" y2="411.77"/><polygon class="cls-48" points="783.63 408.06 782.06 411.77 783.63 415.47 774.86 411.77 783.63 408.06"/></g><g id="Arrow-4" data-name="Arrow"><line class="cls-49" x1="550.13" y1="245.5" x2="550.13" y2="232.39"/><polygon class="cls-50" points="553.83 235.2 550.13 233.63 546.42 235.2 550.13 226.42 553.83 235.2"/></g><circle class="cls-9" cx="174.19" cy="202.51" r="1.5"/></g></svg>