<?xml version="1.0" encoding="utf-8"?>
<!-- Generator: Adobe Illustrator 19.0.0, SVG Export Plug-In . SVG Version: 6.00 Build 0)  -->
<svg version="1.1" xmlns="http://www.w3.org/2000/svg" xmlns:xlink="http://www.w3.org/1999/xlink" x="0px" y="0px"
	 viewBox="0 0 728.5 515.9" style="enable-background:new 0 0 728.5 515.9;" xml:space="preserve">
<style type="text/css">
	.st0{opacity:0.3;fill:#E30613;}
	.st1{opacity:0.3;fill:#009640;}
	.st2{fill:none;stroke:#000000;stroke-width:2;stroke-miterlimit:10;}
	.st3{fill:none;stroke:#E30613;stroke-width:2;stroke-miterlimit:10;}
	.st4{fill:none;stroke:#1D71B8;stroke-width:2;stroke-miterlimit:10;}
	.st5{fill:#009640;stroke:#009640;stroke-width:2;stroke-miterlimit:10;}
	.st6{fill:#E30613;stroke:#E30613;stroke-width:2;stroke-miterlimit:10;}
</style>
<g id="Warstwa_4">
	<rect id="XMLID_11_" x="133.8" y="45.4" class="st0" width="187.3" height="425.2"/>
</g>
<g id="Warstwa_5">
	<rect id="XMLID_12_" x="321" y="45.4" class="st1" width="96" height="425.2"/>
</g>
<g id="Warstwa_7">
	<line id="XMLID_3_" class="st2" x1="52.4" y1="388.6" x2="698.7" y2="164.6"/>
	<path id="XMLID_4_" class="st3" d="M80.8,313"/>
</g>
<g id="Warstwa_1">
	<g id="XMLID_1_">
		<g id="XMLID_16_">
			<line id="XMLID_19_" class="st2" x1="52.4" y1="59.7" x2="52.4" y2="470.6"/>
			<g id="XMLID_17_">
				<polygon id="XMLID_18_" points="42.5,62.6 52.4,45.4 62.4,62.6 				"/>
			</g>
		</g>
	</g>
	<g id="XMLID_2_">
		<g id="XMLID_23_">
			<line id="XMLID_26_" class="st2" x1="52.4" y1="470.6" x2="661.7" y2="470.6"/>
			<g id="XMLID_24_">
				<polygon id="XMLID_25_" points="658.8,480.5 676.1,470.6 658.8,460.6 				"/>
			</g>
		</g>
	</g>
	<g id="XMLID_123_">
		<path id="XMLID_124_" d="M653.2,493.1c-0.7,0-1.3-0.2-1.7-0.6c-0.4-0.4-0.6-1-0.6-1.7v-5.6h-1.1c-0.1,0-0.2,0-0.2-0.1
			c-0.1-0.1-0.1-0.1-0.1-0.3v-0.6l1.5-0.2l0.4-2.8c0-0.1,0.1-0.2,0.1-0.2c0.1-0.1,0.2-0.1,0.3-0.1h0.8v3.1h2.6v1.2h-2.6v5.5
			c0,0.4,0.1,0.7,0.3,0.9c0.2,0.2,0.4,0.3,0.7,0.3c0.2,0,0.3,0,0.4-0.1s0.2-0.1,0.3-0.1c0.1-0.1,0.2-0.1,0.2-0.1
			c0.1,0,0.1-0.1,0.2-0.1c0.1,0,0.2,0.1,0.2,0.2l0.5,0.8c-0.3,0.3-0.6,0.5-1,0.6C654,493.1,653.6,493.1,653.2,493.1z"/>
	</g>
	<g id="XMLID_95_">
		<path id="XMLID_96_" d="M36.2,316.7h6.4v2.3H25.5v-5.1c0-1.1,0.1-2,0.4-2.8c0.3-0.8,0.6-1.5,1.1-2c0.5-0.5,1-0.9,1.7-1.2
			c0.7-0.3,1.4-0.4,2.2-0.4c0.8,0,1.5,0.1,2.2,0.4c0.7,0.3,1.2,0.7,1.7,1.2s0.9,1.2,1.1,2c0.3,0.8,0.4,1.7,0.4,2.7V316.7z
			 M34.4,316.7v-2.8c0-0.7-0.1-1.3-0.3-1.8s-0.4-0.9-0.7-1.3c-0.3-0.3-0.7-0.6-1.1-0.8c-0.4-0.2-0.9-0.3-1.5-0.3c-1.1,0-2,0.3-2.6,1
			c-0.6,0.7-0.9,1.7-0.9,3.1v2.8H34.4z"/>
		<path id="XMLID_99_" d="M33,302v-0.9c0-0.3,0-0.5-0.1-0.7s-0.2-0.3-0.4-0.5l-6.5-5.7c-0.2-0.2-0.3-0.3-0.4-0.5s-0.1-0.4-0.1-0.6
			v-2l7.4,6.6c0.2,0.2,0.3,0.3,0.5,0.5c0.1,0.1,0.2,0.3,0.3,0.5c0.1-0.2,0.2-0.4,0.3-0.6s0.3-0.3,0.5-0.5l8.1-6.8v2
			c0,0.2,0,0.3,0,0.4c0,0.1-0.1,0.2-0.1,0.3c0,0.1-0.1,0.1-0.2,0.2c-0.1,0.1-0.1,0.1-0.2,0.2l-6.8,5.9c-0.1,0.1-0.2,0.2-0.2,0.2
			s-0.1,0.2-0.2,0.3c0,0.1-0.1,0.2-0.1,0.3c0,0.1,0,0.3,0,0.5v1.1h7.9v2.3H25.5V302H33z"/>
		<path id="XMLID_101_" d="M42.7,288.2H25.5v-5.5c0-1.1,0.1-2,0.3-2.7c0.2-0.8,0.5-1.4,0.9-1.9c0.4-0.5,0.9-0.9,1.4-1.1
			c0.6-0.2,1.2-0.4,1.9-0.4c0.4,0,0.8,0.1,1.2,0.2c0.4,0.1,0.8,0.3,1.1,0.6s0.6,0.6,0.9,1c0.3,0.4,0.5,0.9,0.6,1.4
			c0.2-1.3,0.7-2.2,1.4-2.8c0.7-0.6,1.5-1,2.6-1c0.7,0,1.4,0.1,2,0.4c0.6,0.3,1.1,0.7,1.5,1.2s0.8,1.1,1,1.9s0.4,1.6,0.4,2.6V288.2z
			 M33.2,285.9v-3.1c0-0.7-0.1-1.2-0.2-1.7c-0.1-0.5-0.3-0.9-0.6-1.2c-0.3-0.3-0.6-0.5-0.9-0.7c-0.4-0.2-0.8-0.2-1.2-0.2
			c-1,0-1.7,0.3-2.2,0.9c-0.5,0.6-0.7,1.6-0.7,2.8v3.2H33.2z M34.8,285.9h6v-3.7c0-0.7-0.1-1.2-0.2-1.7c-0.2-0.5-0.4-0.9-0.6-1.2
			c-0.3-0.3-0.6-0.5-1-0.7c-0.4-0.1-0.8-0.2-1.3-0.2c-0.9,0-1.6,0.3-2.1,0.9c-0.5,0.6-0.8,1.6-0.8,2.9V285.9z"/>
		<path id="XMLID_105_" d="M35.1,266.7c1.7,0,3.4-0.2,5-0.7c1.6-0.4,3.1-1.1,4.6-1.9c0.1,0,0.2-0.1,0.2-0.1c0.1,0,0.1,0,0.2,0
			c0.1,0,0.2,0,0.3,0.1c0.1,0.1,0.1,0.1,0.2,0.2l0.6,0.9c-0.9,0.6-1.8,1.1-2.7,1.5c-0.9,0.4-1.8,0.8-2.7,1c-0.9,0.3-1.8,0.4-2.8,0.6
			c-0.9,0.1-1.9,0.2-2.8,0.2c-1,0-1.9-0.1-2.8-0.2c-0.9-0.1-1.8-0.3-2.8-0.6c-0.9-0.3-1.8-0.6-2.7-1c-0.9-0.4-1.8-0.9-2.7-1.5
			l0.6-0.9c0.1-0.1,0.1-0.2,0.2-0.2c0.1-0.1,0.2-0.1,0.3-0.1c0.1,0,0.3,0,0.4,0.1c1.5,0.8,3,1.5,4.6,1.9
			C31.7,266.5,33.4,266.7,35.1,266.7z"/>
		<path id="XMLID_107_" d="M42.7,261.2H30.5V260c0-0.2,0-0.4,0.1-0.5c0.1-0.1,0.2-0.1,0.5-0.2l1.9-0.1c-0.8-0.4-1.5-0.9-2-1.5
			c-0.5-0.6-0.7-1.3-0.7-2.2c0-0.3,0-0.6,0.1-0.9c0.1-0.3,0.2-0.5,0.3-0.8l1.6,0.3c0.2,0.1,0.3,0.2,0.3,0.4c0,0.1,0,0.3-0.1,0.5
			c-0.1,0.2-0.1,0.6-0.1,1c0,0.7,0.2,1.4,0.6,1.9s1.1,0.9,1.9,1.3h7.7V261.2z"/>
		<path id="XMLID_109_" d="M30.3,246.7c0-0.7,0.1-1.4,0.4-2c0.2-0.6,0.6-1.1,1.1-1.6c0.5-0.4,1-0.8,1.7-1.1c0.7-0.3,1.4-0.4,2.3-0.4
			c0.3,0,0.6,0,0.7,0.1c0.1,0.1,0.2,0.2,0.2,0.4v8.1c0.8,0,1.4-0.1,2-0.3s1-0.5,1.4-0.8s0.7-0.7,0.9-1.2c0.2-0.5,0.3-1,0.3-1.6
			c0-0.5-0.1-1-0.2-1.4c-0.1-0.4-0.3-0.7-0.4-1c-0.1-0.3-0.3-0.5-0.4-0.7S40,243,40,242.8c0-0.2,0.1-0.3,0.2-0.4l0.8-0.6
			c0.3,0.3,0.6,0.6,0.8,0.9c0.2,0.4,0.4,0.8,0.6,1.2c0.2,0.4,0.3,0.9,0.3,1.3c0.1,0.4,0.1,0.9,0.1,1.3c0,0.8-0.1,1.6-0.4,2.3
			c-0.3,0.7-0.7,1.3-1.2,1.8s-1.2,0.9-2,1.2c-0.8,0.3-1.7,0.4-2.8,0.4c-0.8,0-1.6-0.1-2.4-0.4c-0.7-0.3-1.4-0.6-1.9-1.1
			c-0.5-0.5-1-1.1-1.3-1.8C30.5,248.4,30.3,247.6,30.3,246.7z M31.9,246.7c0,1,0.3,1.8,0.9,2.4c0.6,0.6,1.4,1,2.5,1.1v-6.6
			c-0.5,0-1,0.1-1.4,0.2c-0.4,0.1-0.8,0.3-1.1,0.6c-0.3,0.3-0.5,0.6-0.7,1S31.9,246.2,31.9,246.7z"/>
		<path id="XMLID_112_" d="M42.7,230v0.9c0,0.2,0,0.4-0.1,0.5c-0.1,0.1-0.2,0.2-0.4,0.3L41,232c0.3,0.3,0.5,0.6,0.8,0.9
			c0.2,0.3,0.4,0.6,0.6,1c0.2,0.3,0.3,0.7,0.4,1.1c0.1,0.4,0.1,0.8,0.1,1.3c0,0.5-0.1,0.9-0.2,1.3c-0.1,0.4-0.3,0.8-0.6,1.1
			c-0.3,0.3-0.6,0.5-1,0.7c-0.4,0.2-0.9,0.3-1.4,0.3c-0.5,0-0.9-0.1-1.4-0.4c-0.4-0.3-0.8-0.7-1.2-1.3c-0.3-0.6-0.6-1.4-0.8-2.3
			s-0.3-2.1-0.3-3.5h-1c-1,0-1.7,0.2-2.2,0.6c-0.5,0.4-0.7,1-0.7,1.8c0,0.5,0.1,1,0.2,1.3c0.1,0.4,0.3,0.7,0.4,0.9s0.3,0.5,0.4,0.7
			c0.1,0.2,0.2,0.4,0.2,0.6c0,0.1,0,0.3-0.1,0.4c-0.1,0.1-0.2,0.2-0.3,0.3l-0.7,0.4c-0.6-0.7-1.1-1.4-1.5-2.2
			c-0.3-0.8-0.5-1.6-0.5-2.6c0-0.7,0.1-1.3,0.3-1.8c0.2-0.5,0.5-1,0.9-1.3c0.4-0.4,0.9-0.6,1.5-0.8s1.2-0.3,1.9-0.3H42.7z
			 M41.4,235.6c0-0.4,0-0.7-0.1-1s-0.2-0.6-0.3-0.9c-0.1-0.3-0.3-0.5-0.5-0.8c-0.2-0.3-0.4-0.5-0.7-0.7h-2.5c0,1,0.1,1.8,0.2,2.5
			c0.1,0.7,0.3,1.2,0.5,1.7s0.4,0.7,0.7,0.9c0.3,0.2,0.6,0.3,0.9,0.3c0.3,0,0.6-0.1,0.8-0.2s0.4-0.2,0.6-0.4s0.3-0.4,0.3-0.6
			C41.3,236.1,41.4,235.9,41.4,235.6z"/>
		<path id="XMLID_115_" d="M25,224.4h17.7v2.1H25V224.4z"/>
		<path id="XMLID_117_" d="M42.7,220.6H30.5v-1.3c0-0.3,0.1-0.5,0.4-0.6l1.3-0.2c-0.6-0.5-1.1-1.1-1.4-1.8c-0.4-0.7-0.5-1.4-0.5-2.3
			c0-0.7,0.1-1.3,0.3-1.8c0.2-0.5,0.5-0.9,0.9-1.3c0.4-0.3,0.9-0.6,1.5-0.8c0.6-0.2,1.2-0.3,1.9-0.3h7.7v2.1h-7.7
			c-0.9,0-1.6,0.2-2.1,0.6c-0.5,0.4-0.8,1.1-0.8,1.9c0,0.6,0.2,1.2,0.5,1.8c0.3,0.5,0.7,1.1,1.2,1.5h9V220.6z"/>
		<path id="XMLID_119_" d="M46.3,204.1c0.2,0.1,0.3,0.2,0.4,0.3c0.1,0.1,0.1,0.3,0.1,0.5v1.6l-4.8-2.2l-11.4,5v-1.8
			c0-0.2,0-0.3,0.1-0.4c0.1-0.1,0.2-0.2,0.3-0.2l7.7-3.3c0.2-0.1,0.4-0.1,0.5-0.2c0.2-0.1,0.4-0.1,0.5-0.1c-0.2-0.1-0.4-0.1-0.5-0.2
			c-0.2-0.1-0.4-0.1-0.5-0.2l-7.6-3.2c-0.1,0-0.2-0.1-0.3-0.2c-0.1-0.1-0.1-0.2-0.1-0.4v-1.7L46.3,204.1z"/>
		<path id="XMLID_121_" d="M35.1,193.6c-1.7,0-3.4,0.2-5,0.7c-1.6,0.4-3.2,1.1-4.6,1.9c-0.2,0.1-0.3,0.1-0.4,0.1
			c-0.1,0-0.2,0-0.3-0.1c-0.1-0.1-0.1-0.1-0.2-0.2l-0.6-0.9c0.9-0.6,1.8-1.1,2.7-1.5c0.9-0.4,1.8-0.8,2.7-1c0.9-0.3,1.8-0.5,2.8-0.6
			c0.9-0.1,1.9-0.2,2.8-0.2c1,0,1.9,0.1,2.8,0.2c0.9,0.1,1.8,0.3,2.8,0.6c0.9,0.3,1.8,0.6,2.7,1c0.9,0.4,1.8,0.9,2.7,1.5l-0.6,0.9
			c-0.1,0.1-0.1,0.2-0.2,0.2c-0.1,0.1-0.2,0.1-0.3,0.1c-0.1,0-0.1,0-0.2,0c-0.1,0-0.1,0-0.2-0.1c-1.5-0.8-3-1.5-4.6-1.9
			C38.5,193.8,36.8,193.6,35.1,193.6z"/>
	</g>
	<path id="XMLID_6_" class="st4" d="M67,408.5c9.4-41.4,27.6-91.5,66-104.5c69.3-23.5,141.5,95.3,197.5,73
		c66.6-26.5,23.1-217.7,81.5-238.5c57.2-20.4,135.9,149.9,214.5,134.5c53.1-10.4,80.7-100.6,96-179"/>
</g>
<g id="Warstwa_3">
	<circle id="XMLID_7_" class="st5" cx="133.8" cy="302.3" r="6.8"/>
	<circle id="XMLID_8_" class="st6" cx="321" cy="379.5" r="6.8"/>
	<circle id="XMLID_9_" class="st5" cx="417" cy="137" r="6.8"/>
	<circle id="XMLID_10_" class="st6" cx="622" cy="273.5" r="6.8"/>
</g>
<g id="Warstwa_6">
</g>
<g id="Warstwa_9">
	<g id="XMLID_75_">
		<path id="XMLID_76_" d="M206.7,89.1H205c-0.3,0-0.6-0.1-0.7-0.4l-2.1-3.2c-0.1-0.1-0.2-0.2-0.3-0.3s-0.2-0.1-0.4-0.1h-0.8v4h-1.9
			V79h3.1c0.7,0,1.3,0.1,1.8,0.2c0.5,0.1,0.9,0.3,1.2,0.6c0.3,0.3,0.5,0.6,0.7,0.9c0.1,0.4,0.2,0.8,0.2,1.2c0,0.3,0,0.7-0.2,1
			c-0.1,0.3-0.2,0.6-0.4,0.8s-0.4,0.5-0.7,0.7c-0.3,0.2-0.6,0.3-0.9,0.4c0.1,0.1,0.2,0.2,0.3,0.2c0.1,0.1,0.2,0.2,0.3,0.3
			L206.7,89.1z M201.8,83.8c0.4,0,0.7,0,0.9-0.1s0.5-0.2,0.7-0.4c0.2-0.2,0.3-0.3,0.4-0.6c0.1-0.2,0.1-0.5,0.1-0.7
			c0-0.5-0.2-0.9-0.5-1.2s-0.9-0.4-1.6-0.4h-1.2v3.4H201.8z"/>
		<path id="XMLID_79_" d="M208.4,85.7c0,0.4,0.1,0.7,0.2,1s0.2,0.5,0.4,0.7c0.2,0.2,0.4,0.3,0.6,0.4c0.2,0.1,0.5,0.1,0.8,0.1
			c0.3,0,0.5,0,0.7-0.1s0.4-0.1,0.5-0.2c0.2-0.1,0.3-0.2,0.4-0.2c0.1-0.1,0.2-0.1,0.3-0.1c0.1,0,0.3,0.1,0.3,0.2l0.5,0.6
			c-0.2,0.2-0.4,0.4-0.6,0.6c-0.2,0.2-0.5,0.3-0.7,0.4c-0.3,0.1-0.5,0.2-0.8,0.2c-0.3,0-0.5,0.1-0.8,0.1c-0.5,0-1-0.1-1.4-0.2
			s-0.8-0.4-1.1-0.7s-0.6-0.7-0.7-1.2c-0.2-0.5-0.3-1-0.3-1.7c0-0.5,0.1-1,0.2-1.4c0.2-0.4,0.4-0.8,0.7-1.1s0.7-0.6,1.1-0.8
			c0.4-0.2,0.9-0.3,1.4-0.3c0.5,0,0.9,0.1,1.3,0.2c0.4,0.1,0.7,0.4,1,0.6c0.3,0.3,0.5,0.6,0.6,1c0.2,0.4,0.2,0.9,0.2,1.4
			c0,0.3,0,0.4-0.1,0.5c-0.1,0.1-0.2,0.1-0.3,0.1H208.4z M211.7,84.7c0-0.2,0-0.4-0.1-0.6c-0.1-0.2-0.2-0.4-0.3-0.5
			s-0.3-0.3-0.5-0.4c-0.2-0.1-0.4-0.1-0.7-0.1c-0.5,0-0.9,0.1-1.2,0.4s-0.5,0.7-0.5,1.2H211.7z"/>
		<path id="XMLID_82_" d="M219.6,83.4c-0.1,0.1-0.1,0.1-0.2,0.2c0,0-0.1,0.1-0.2,0.1c-0.1,0-0.2,0-0.3-0.1c-0.1-0.1-0.2-0.1-0.3-0.2
			c-0.1-0.1-0.3-0.1-0.4-0.2c-0.2-0.1-0.4-0.1-0.6-0.1c-0.3,0-0.6,0.1-0.8,0.2c-0.2,0.1-0.4,0.3-0.6,0.5c-0.2,0.2-0.3,0.5-0.3,0.7
			c-0.1,0.3-0.1,0.6-0.1,1c0,0.4,0,0.7,0.1,1c0.1,0.3,0.2,0.5,0.4,0.8c0.2,0.2,0.3,0.4,0.6,0.5s0.5,0.2,0.7,0.2s0.5,0,0.7-0.1
			c0.2-0.1,0.3-0.1,0.4-0.2c0.1-0.1,0.2-0.2,0.3-0.2c0.1-0.1,0.2-0.1,0.3-0.1c0.1,0,0.2,0.1,0.3,0.2l0.5,0.6
			c-0.2,0.2-0.4,0.4-0.6,0.6c-0.2,0.2-0.5,0.3-0.7,0.4c-0.2,0.1-0.5,0.2-0.7,0.2c-0.3,0-0.5,0.1-0.8,0.1c-0.4,0-0.9-0.1-1.3-0.2
			c-0.4-0.2-0.7-0.4-1-0.7c-0.3-0.3-0.5-0.7-0.7-1.2c-0.2-0.5-0.3-1-0.3-1.6c0-0.5,0.1-1,0.2-1.5c0.2-0.5,0.4-0.8,0.7-1.2
			c0.3-0.3,0.7-0.6,1.1-0.8c0.4-0.2,0.9-0.3,1.5-0.3c0.5,0,1,0.1,1.4,0.3c0.4,0.2,0.8,0.4,1.1,0.7L219.6,83.4z"/>
		<path id="XMLID_84_" d="M222.5,85.7c0,0.4,0.1,0.7,0.2,1s0.2,0.5,0.4,0.7c0.2,0.2,0.4,0.3,0.6,0.4c0.2,0.1,0.5,0.1,0.8,0.1
			c0.3,0,0.5,0,0.7-0.1s0.4-0.1,0.5-0.2c0.2-0.1,0.3-0.2,0.4-0.2c0.1-0.1,0.2-0.1,0.3-0.1c0.1,0,0.3,0.1,0.3,0.2l0.5,0.6
			c-0.2,0.2-0.4,0.4-0.6,0.6c-0.2,0.2-0.5,0.3-0.7,0.4c-0.3,0.1-0.5,0.2-0.8,0.2c-0.3,0-0.5,0.1-0.8,0.1c-0.5,0-1-0.1-1.4-0.2
			s-0.8-0.4-1.1-0.7s-0.6-0.7-0.7-1.2c-0.2-0.5-0.3-1-0.3-1.7c0-0.5,0.1-1,0.2-1.4c0.2-0.4,0.4-0.8,0.7-1.1s0.7-0.6,1.1-0.8
			c0.4-0.2,0.9-0.3,1.4-0.3c0.5,0,0.9,0.1,1.3,0.2c0.4,0.1,0.7,0.4,1,0.6c0.3,0.3,0.5,0.6,0.6,1c0.2,0.4,0.2,0.9,0.2,1.4
			c0,0.3,0,0.4-0.1,0.5c-0.1,0.1-0.2,0.1-0.3,0.1H222.5z M225.8,84.7c0-0.2,0-0.4-0.1-0.6c-0.1-0.2-0.2-0.4-0.3-0.5
			s-0.3-0.3-0.5-0.4c-0.2-0.1-0.4-0.1-0.7-0.1c-0.5,0-0.9,0.1-1.2,0.4s-0.5,0.7-0.5,1.2H225.8z"/>
		<path id="XMLID_87_" d="M233,83.3c0,0.1-0.1,0.1-0.1,0.2s-0.1,0-0.2,0c-0.1,0-0.2,0-0.3-0.1c-0.1,0-0.2-0.1-0.3-0.2
			c-0.1-0.1-0.3-0.1-0.4-0.2c-0.2,0-0.4-0.1-0.6-0.1c-0.3,0-0.6,0.1-0.8,0.2c-0.2,0.1-0.3,0.3-0.3,0.6c0,0.2,0,0.3,0.2,0.4
			c0.1,0.1,0.2,0.2,0.4,0.3c0.2,0.1,0.4,0.2,0.6,0.2s0.4,0.1,0.6,0.2c0.2,0.1,0.4,0.2,0.6,0.3c0.2,0.1,0.4,0.2,0.6,0.4
			c0.2,0.1,0.3,0.3,0.4,0.5c0.1,0.2,0.2,0.5,0.2,0.7c0,0.3-0.1,0.7-0.2,1c-0.1,0.3-0.3,0.5-0.5,0.8c-0.2,0.2-0.5,0.4-0.9,0.5
			c-0.4,0.1-0.8,0.2-1.2,0.2c-0.2,0-0.5,0-0.7-0.1c-0.2,0-0.5-0.1-0.7-0.2c-0.2-0.1-0.4-0.2-0.6-0.3c-0.2-0.1-0.3-0.2-0.5-0.4
			l0.4-0.7c0.1-0.1,0.1-0.1,0.2-0.2c0.1,0,0.2-0.1,0.3-0.1s0.2,0,0.3,0.1s0.2,0.1,0.3,0.2c0.1,0.1,0.3,0.1,0.4,0.2s0.4,0.1,0.6,0.1
			c0.2,0,0.4,0,0.5-0.1c0.1,0,0.3-0.1,0.4-0.2c0.1-0.1,0.2-0.2,0.2-0.3s0.1-0.2,0.1-0.3c0-0.2-0.1-0.3-0.2-0.4
			c-0.1-0.1-0.2-0.2-0.4-0.3c-0.2-0.1-0.4-0.2-0.6-0.2c-0.2-0.1-0.4-0.1-0.7-0.2s-0.4-0.2-0.7-0.3c-0.2-0.1-0.4-0.2-0.6-0.4
			c-0.2-0.2-0.3-0.3-0.4-0.6c-0.1-0.2-0.2-0.5-0.2-0.8c0-0.3,0.1-0.6,0.2-0.8s0.3-0.5,0.5-0.7c0.2-0.2,0.5-0.4,0.8-0.5
			c0.3-0.1,0.7-0.2,1.2-0.2c0.5,0,0.9,0.1,1.4,0.2c0.4,0.2,0.7,0.4,1,0.6L233,83.3z"/>
		<path id="XMLID_89_" d="M236.5,81.9v7.4c0,0.3,0,0.6-0.1,0.9s-0.2,0.5-0.4,0.7c-0.2,0.2-0.4,0.4-0.7,0.5c-0.3,0.1-0.6,0.2-1.1,0.2
			c-0.2,0-0.3,0-0.5,0c-0.1,0-0.3-0.1-0.4-0.1l0.1-0.9c0-0.1,0.1-0.2,0.1-0.2c0.1,0,0.2,0,0.4,0c0.2,0,0.3,0,0.4-0.1
			c0.1,0,0.2-0.1,0.3-0.2c0.1-0.1,0.1-0.2,0.2-0.3c0-0.1,0-0.3,0-0.5v-7.4H236.5z M236.8,79.8c0,0.1,0,0.3-0.1,0.4
			c-0.1,0.1-0.1,0.2-0.2,0.3c-0.1,0.1-0.2,0.2-0.4,0.2c-0.1,0.1-0.3,0.1-0.4,0.1c-0.1,0-0.3,0-0.4-0.1c-0.1-0.1-0.2-0.1-0.3-0.2
			c-0.1-0.1-0.2-0.2-0.2-0.3c-0.1-0.1-0.1-0.3-0.1-0.4c0-0.2,0-0.3,0.1-0.4c0.1-0.1,0.1-0.3,0.2-0.4c0.1-0.1,0.2-0.2,0.3-0.2
			c0.1-0.1,0.3-0.1,0.4-0.1c0.2,0,0.3,0,0.4,0.1c0.1,0.1,0.3,0.1,0.4,0.2c0.1,0.1,0.2,0.2,0.2,0.4S236.8,79.6,236.8,79.8z"/>
		<path id="XMLID_92_" d="M238.1,82.9c0.8-0.8,1.8-1.1,3-1.1c0.4,0,0.8,0.1,1.1,0.2s0.6,0.3,0.8,0.6c0.2,0.2,0.4,0.5,0.5,0.9
			c0.1,0.3,0.2,0.7,0.2,1.1v4.5H243c-0.2,0-0.3,0-0.4-0.1c-0.1,0-0.2-0.1-0.2-0.3l-0.2-0.5c-0.2,0.2-0.4,0.3-0.5,0.4
			c-0.2,0.1-0.4,0.2-0.5,0.3c-0.2,0.1-0.4,0.1-0.6,0.2c-0.2,0-0.4,0.1-0.7,0.1c-0.3,0-0.6,0-0.8-0.1c-0.3-0.1-0.5-0.2-0.7-0.4
			c-0.2-0.2-0.3-0.4-0.4-0.6s-0.2-0.5-0.2-0.8c0-0.2,0-0.4,0.1-0.5s0.2-0.4,0.3-0.5c0.1-0.2,0.3-0.3,0.5-0.5
			c0.2-0.1,0.5-0.3,0.8-0.4c0.3-0.1,0.7-0.2,1.1-0.3c0.4-0.1,0.9-0.1,1.5-0.1v-0.4c0-0.5-0.1-0.8-0.3-1.1c-0.2-0.2-0.5-0.3-0.9-0.3
			c-0.3,0-0.5,0-0.7,0.1c-0.2,0.1-0.3,0.1-0.5,0.2s-0.3,0.2-0.4,0.2c-0.1,0.1-0.2,0.1-0.4,0.1c-0.1,0-0.2,0-0.3-0.1
			s-0.2-0.1-0.2-0.2L238.1,82.9z M242.1,86c-0.5,0-0.9,0.1-1.3,0.1c-0.3,0.1-0.6,0.1-0.8,0.2c-0.2,0.1-0.4,0.2-0.4,0.3
			c-0.1,0.1-0.1,0.3-0.1,0.4c0,0.3,0.1,0.5,0.3,0.7s0.4,0.2,0.7,0.2c0.4,0,0.7-0.1,0.9-0.2c0.3-0.1,0.5-0.3,0.8-0.6V86z"/>
	</g>
</g>
<g id="Warstwa_8">
	<g id="XMLID_50_">
		<path id="XMLID_51_" d="M346.2,84c0,0.7-0.1,1.4-0.4,2.1s-0.6,1.2-1,1.6c-0.4,0.5-1,0.8-1.6,1.1c-0.6,0.3-1.3,0.4-2.1,0.4
			c-0.8,0-1.5-0.1-2.1-0.4c-0.6-0.3-1.2-0.6-1.6-1.1s-0.8-1-1-1.6c-0.2-0.6-0.4-1.3-0.4-2.1s0.1-1.4,0.4-2.1c0.2-0.6,0.6-1.2,1-1.6
			c0.5-0.5,1-0.8,1.6-1.1c0.6-0.3,1.3-0.4,2.1-0.4c0.5,0,1,0.1,1.4,0.2c0.5,0.1,0.9,0.3,1.2,0.5c0.4,0.2,0.7,0.5,1,0.8
			c0.3,0.3,0.6,0.7,0.8,1c0.2,0.4,0.4,0.8,0.5,1.2C346.1,83,346.2,83.5,346.2,84z M344.3,84c0-0.6-0.1-1.1-0.2-1.5
			c-0.1-0.4-0.4-0.8-0.6-1.1c-0.3-0.3-0.6-0.5-1-0.7c-0.4-0.2-0.8-0.2-1.3-0.2s-0.9,0.1-1.3,0.2c-0.4,0.2-0.7,0.4-1,0.7
			c-0.3,0.3-0.5,0.7-0.6,1.1c-0.1,0.4-0.2,0.9-0.2,1.5c0,0.6,0.1,1.1,0.2,1.5s0.4,0.8,0.6,1.1s0.6,0.5,1,0.7
			c0.4,0.2,0.8,0.2,1.3,0.2s0.9-0.1,1.3-0.2c0.4-0.2,0.7-0.4,1-0.7s0.5-0.7,0.6-1.1S344.3,84.6,344.3,84z"/>
		<path id="XMLID_54_" d="M352.6,82.6c0,0.1,0,0.2-0.1,0.4s-0.1,0.2-0.2,0.3l-3.4,4.5h3.5v1.3h-5.5v-0.7c0-0.1,0-0.2,0.1-0.3
			c0-0.1,0.1-0.2,0.2-0.3l3.4-4.5h-3.5v-1.3h5.4V82.6z M351.1,79.8c0,0.1,0,0.3-0.1,0.4c-0.1,0.1-0.1,0.2-0.2,0.3
			c-0.1,0.1-0.2,0.2-0.4,0.2c-0.1,0.1-0.3,0.1-0.4,0.1c-0.1,0-0.3,0-0.4-0.1c-0.1-0.1-0.2-0.1-0.3-0.2c-0.1-0.1-0.2-0.2-0.2-0.3
			c-0.1-0.1-0.1-0.3-0.1-0.4c0-0.2,0-0.3,0.1-0.4c0.1-0.1,0.1-0.2,0.2-0.4c0.1-0.1,0.2-0.2,0.3-0.2c0.1-0.1,0.3-0.1,0.4-0.1
			c0.2,0,0.3,0,0.4,0.1c0.1,0.1,0.3,0.1,0.4,0.2c0.1,0.1,0.2,0.2,0.2,0.4C351,79.5,351.1,79.6,351.1,79.8z"/>
		<path id="XMLID_57_" d="M360.4,81.9l-3.9,9.2c-0.1,0.1-0.1,0.2-0.2,0.3c-0.1,0.1-0.2,0.1-0.4,0.1h-1.3l1.3-2.9l-2.9-6.6h1.5
			c0.1,0,0.2,0,0.3,0.1c0.1,0.1,0.1,0.1,0.2,0.2l1.5,3.7c0.1,0.1,0.1,0.3,0.1,0.4s0.1,0.3,0.1,0.4c0-0.1,0.1-0.3,0.1-0.4
			c0-0.1,0.1-0.3,0.1-0.4l1.4-3.7c0-0.1,0.1-0.2,0.2-0.2s0.2-0.1,0.3-0.1H360.4z"/>
		<path id="XMLID_59_" d="M371.5,81.9l-2.3,7.2h-1.4c-0.2,0-0.3-0.1-0.3-0.3l-1.3-4.2c0-0.1-0.1-0.3-0.1-0.4c0-0.1-0.1-0.3-0.1-0.4
			c0,0.1-0.1,0.3-0.1,0.4c0,0.1-0.1,0.3-0.1,0.4l-1.3,4.1c-0.1,0.2-0.2,0.3-0.4,0.3h-1.3l-2.3-7.2h1.4c0.1,0,0.2,0,0.3,0.1
			s0.1,0.1,0.2,0.2l1,3.8c0.1,0.2,0.1,0.4,0.1,0.6c0,0.2,0.1,0.4,0.1,0.6c0.1-0.2,0.1-0.4,0.2-0.6c0.1-0.2,0.1-0.4,0.2-0.6l1.2-3.9
			c0-0.1,0.1-0.2,0.2-0.2c0.1-0.1,0.2-0.1,0.3-0.1h0.8c0.1,0,0.2,0,0.3,0.1c0.1,0.1,0.1,0.1,0.2,0.2l1.2,3.9
			c0.1,0.2,0.1,0.4,0.2,0.6c0.1,0.2,0.1,0.4,0.2,0.6c0.1-0.4,0.1-0.8,0.3-1.2l1.1-3.8c0-0.1,0.1-0.2,0.2-0.2s0.2-0.1,0.3-0.1H371.5z
			"/>
		<path id="XMLID_61_" d="M374.5,79.8c0,0.1,0,0.3-0.1,0.4c-0.1,0.1-0.1,0.2-0.2,0.3c-0.1,0.1-0.2,0.2-0.4,0.2
			c-0.1,0.1-0.3,0.1-0.4,0.1c-0.1,0-0.3,0-0.4-0.1c-0.1-0.1-0.2-0.1-0.3-0.2c-0.1-0.1-0.2-0.2-0.2-0.3c-0.1-0.1-0.1-0.3-0.1-0.4
			c0-0.2,0-0.3,0.1-0.4c0.1-0.1,0.1-0.3,0.2-0.4s0.2-0.2,0.3-0.2c0.1-0.1,0.3-0.1,0.4-0.1c0.2,0,0.3,0,0.4,0.1
			c0.1,0.1,0.3,0.1,0.4,0.2c0.1,0.1,0.2,0.2,0.2,0.4S374.5,79.6,374.5,79.8z M374.3,81.9v7.2h-1.7v-7.2H374.3z"/>
		<path id="XMLID_64_" d="M377.4,85.7c0,0.4,0.1,0.7,0.2,1s0.2,0.5,0.4,0.7c0.2,0.2,0.4,0.3,0.6,0.4c0.2,0.1,0.5,0.1,0.8,0.1
			c0.3,0,0.5,0,0.7-0.1c0.2-0.1,0.4-0.1,0.5-0.2c0.2-0.1,0.3-0.2,0.4-0.2c0.1-0.1,0.2-0.1,0.3-0.1c0.1,0,0.3,0.1,0.3,0.2l0.5,0.6
			c-0.2,0.2-0.4,0.4-0.6,0.6c-0.2,0.2-0.5,0.3-0.7,0.4s-0.5,0.2-0.8,0.2c-0.3,0-0.5,0.1-0.8,0.1c-0.5,0-1-0.1-1.4-0.2
			c-0.4-0.2-0.8-0.4-1.1-0.7s-0.6-0.7-0.7-1.2c-0.2-0.5-0.3-1-0.3-1.7c0-0.5,0.1-1,0.2-1.4c0.2-0.4,0.4-0.8,0.7-1.1
			c0.3-0.3,0.7-0.6,1.1-0.8c0.4-0.2,0.9-0.3,1.4-0.3c0.5,0,0.9,0.1,1.3,0.2c0.4,0.1,0.7,0.4,1,0.6c0.3,0.3,0.5,0.6,0.6,1
			s0.2,0.9,0.2,1.4c0,0.3,0,0.4-0.1,0.5c-0.1,0.1-0.2,0.1-0.3,0.1H377.4z M380.7,84.7c0-0.2,0-0.4-0.1-0.6c-0.1-0.2-0.2-0.4-0.3-0.5
			s-0.3-0.3-0.5-0.4c-0.2-0.1-0.4-0.1-0.7-0.1c-0.5,0-0.9,0.1-1.2,0.4s-0.5,0.7-0.5,1.2H380.7z"/>
		<path id="XMLID_67_" d="M385.1,82.8c0.1-0.1,0.3-0.3,0.5-0.4c0.2-0.1,0.3-0.2,0.5-0.3s0.4-0.2,0.6-0.2c0.2,0,0.4-0.1,0.7-0.1
			c0.4,0,0.7,0.1,1,0.2c0.3,0.1,0.6,0.3,0.8,0.6c0.2,0.2,0.4,0.5,0.5,0.9c0.1,0.3,0.2,0.7,0.2,1.1v4.6h-1.7v-4.6
			c0-0.4-0.1-0.8-0.3-1c-0.2-0.2-0.5-0.4-0.9-0.4c-0.3,0-0.6,0.1-0.8,0.2c-0.3,0.1-0.5,0.3-0.7,0.6v5.2h-1.7v-7.2h1.1
			c0.2,0,0.4,0.1,0.4,0.3L385.1,82.8z"/>
		<path id="XMLID_69_" d="M393.4,79.8c0,0.1,0,0.3-0.1,0.4c-0.1,0.1-0.1,0.2-0.2,0.3c-0.1,0.1-0.2,0.2-0.4,0.2
			c-0.1,0.1-0.3,0.1-0.4,0.1c-0.1,0-0.3,0-0.4-0.1c-0.1-0.1-0.2-0.1-0.3-0.2c-0.1-0.1-0.2-0.2-0.2-0.3c-0.1-0.1-0.1-0.3-0.1-0.4
			c0-0.2,0-0.3,0.1-0.4c0.1-0.1,0.1-0.3,0.2-0.4s0.2-0.2,0.3-0.2c0.1-0.1,0.3-0.1,0.4-0.1c0.2,0,0.3,0,0.4,0.1
			c0.1,0.1,0.3,0.1,0.4,0.2c0.1,0.1,0.2,0.2,0.2,0.4S393.4,79.6,393.4,79.8z M393.2,81.9v7.2h-1.7v-7.2H393.2z"/>
		<path id="XMLID_72_" d="M396.3,85.7c0,0.4,0.1,0.7,0.2,1s0.2,0.5,0.4,0.7c0.2,0.2,0.4,0.3,0.6,0.4c0.2,0.1,0.5,0.1,0.8,0.1
			c0.3,0,0.5,0,0.7-0.1c0.2-0.1,0.4-0.1,0.5-0.2c0.2-0.1,0.3-0.2,0.4-0.2c0.1-0.1,0.2-0.1,0.3-0.1c0.1,0,0.3,0.1,0.3,0.2l0.5,0.6
			c-0.2,0.2-0.4,0.4-0.6,0.6c-0.2,0.2-0.5,0.3-0.7,0.4s-0.5,0.2-0.8,0.2c-0.3,0-0.5,0.1-0.8,0.1c-0.5,0-1-0.1-1.4-0.2
			c-0.4-0.2-0.8-0.4-1.1-0.7s-0.6-0.7-0.7-1.2c-0.2-0.5-0.3-1-0.3-1.7c0-0.5,0.1-1,0.2-1.4c0.2-0.4,0.4-0.8,0.7-1.1
			c0.3-0.3,0.7-0.6,1.1-0.8c0.4-0.2,0.9-0.3,1.4-0.3c0.5,0,0.9,0.1,1.3,0.2c0.4,0.1,0.7,0.4,1,0.6c0.3,0.3,0.5,0.6,0.6,1
			s0.2,0.9,0.2,1.4c0,0.3,0,0.4-0.1,0.5c-0.1,0.1-0.2,0.1-0.3,0.1H396.3z M399.6,84.7c0-0.2,0-0.4-0.1-0.6c-0.1-0.2-0.2-0.4-0.3-0.5
			s-0.3-0.3-0.5-0.4c-0.2-0.1-0.4-0.1-0.7-0.1c-0.5,0-0.9,0.1-1.2,0.4s-0.5,0.7-0.5,1.2H399.6z"/>
	</g>
</g>
<g id="Warstwa_10">
	<g id="XMLID_41_">
		<path id="XMLID_42_" d="M300.9,393.5c0,0.8-0.1,1.4-0.4,2.1c-0.2,0.6-0.6,1.1-1,1.6s-1,0.8-1.6,1c-0.6,0.2-1.3,0.4-2,0.4h-3.8v-10
			h3.8c0.7,0,1.4,0.1,2,0.4c0.6,0.2,1.1,0.6,1.6,1s0.8,1,1,1.6C300.7,392.1,300.9,392.7,300.9,393.5z M299.5,393.5
			c0-0.6-0.1-1.2-0.3-1.7s-0.4-0.9-0.7-1.2c-0.3-0.3-0.7-0.6-1.1-0.8c-0.4-0.2-0.9-0.3-1.5-0.3h-2.4v7.8h2.4c0.5,0,1-0.1,1.5-0.3
			c0.4-0.2,0.8-0.4,1.1-0.8c0.3-0.3,0.5-0.7,0.7-1.2S299.5,394.1,299.5,393.5z"/>
		<path id="XMLID_45_" d="M302.5,398.5v-7.1h0.7c0.2,0,0.3,0.1,0.3,0.3l0.1,0.8c0.3-0.3,0.7-0.6,1-0.8s0.8-0.3,1.3-0.3
			c0.4,0,0.7,0.1,1,0.2c0.3,0.1,0.5,0.3,0.7,0.5c0.2,0.2,0.3,0.5,0.5,0.9c0.1,0.3,0.2,0.7,0.2,1.1v4.5h-1.2V394c0-0.5-0.1-1-0.4-1.3
			c-0.2-0.3-0.6-0.4-1.1-0.4c-0.4,0-0.7,0.1-1,0.3c-0.3,0.2-0.6,0.4-0.9,0.7v5.2H302.5z"/>
		<path id="XMLID_47_" d="M313.2,391.3c0.5,0,1,0.1,1.4,0.3c0.4,0.2,0.8,0.4,1.1,0.7s0.5,0.7,0.7,1.2c0.2,0.5,0.2,1,0.2,1.5
			c0,0.6-0.1,1.1-0.2,1.5c-0.2,0.4-0.4,0.8-0.7,1.1s-0.6,0.6-1.1,0.7c-0.4,0.2-0.9,0.3-1.4,0.3s-1-0.1-1.4-0.3
			c-0.4-0.2-0.8-0.4-1.1-0.7s-0.5-0.7-0.7-1.1c-0.2-0.4-0.2-1-0.2-1.5c0-0.6,0.1-1.1,0.2-1.5c0.2-0.5,0.4-0.8,0.7-1.2
			s0.6-0.6,1.1-0.7C312.2,391.4,312.6,391.3,313.2,391.3z M313.2,397.6c0.7,0,1.2-0.2,1.6-0.7c0.3-0.5,0.5-1.1,0.5-2
			c0-0.8-0.2-1.5-0.5-2c-0.3-0.5-0.9-0.7-1.6-0.7c-0.4,0-0.7,0.1-0.9,0.2c-0.3,0.1-0.5,0.3-0.7,0.5s-0.3,0.5-0.4,0.8
			c-0.1,0.3-0.1,0.7-0.1,1.1s0,0.8,0.1,1.1s0.2,0.6,0.4,0.8c0.2,0.2,0.4,0.4,0.7,0.5C312.5,397.6,312.8,397.6,313.2,397.6z"/>
	</g>
	<g id="XMLID_28_">
		<path id="XMLID_29_" d="M429.7,117c0,0.1-0.1,0.1-0.1,0.2c0,0-0.1,0.1-0.2,0.1c-0.1,0-0.2,0-0.3-0.1c-0.1-0.1-0.2-0.2-0.4-0.3
			s-0.4-0.2-0.6-0.3c-0.2-0.1-0.5-0.1-0.8-0.1c-0.3,0-0.6,0-0.8,0.1s-0.4,0.2-0.6,0.3s-0.3,0.3-0.4,0.5s-0.1,0.4-0.1,0.6
			c0,0.3,0.1,0.5,0.2,0.7c0.1,0.2,0.3,0.3,0.5,0.5c0.2,0.1,0.5,0.2,0.8,0.3c0.3,0.1,0.6,0.2,0.9,0.3c0.3,0.1,0.6,0.2,0.9,0.3
			c0.3,0.1,0.5,0.3,0.8,0.5c0.2,0.2,0.4,0.4,0.5,0.7c0.1,0.3,0.2,0.6,0.2,1.1c0,0.4-0.1,0.9-0.2,1.2c-0.1,0.4-0.4,0.7-0.7,1
			c-0.3,0.3-0.6,0.5-1.1,0.7c-0.4,0.2-0.9,0.2-1.4,0.2c-0.6,0-1.2-0.1-1.8-0.4c-0.5-0.2-1-0.6-1.4-1l0.4-0.6c0-0.1,0.1-0.1,0.1-0.1
			c0.1,0,0.1-0.1,0.2-0.1c0.1,0,0.2,0.1,0.3,0.2s0.3,0.2,0.5,0.3c0.2,0.1,0.4,0.2,0.7,0.3s0.6,0.2,1,0.2c0.3,0,0.6,0,0.9-0.1
			s0.5-0.2,0.6-0.4s0.3-0.4,0.4-0.6c0.1-0.2,0.1-0.5,0.1-0.7c0-0.3-0.1-0.6-0.2-0.7c-0.1-0.2-0.3-0.4-0.5-0.5
			c-0.2-0.1-0.5-0.2-0.8-0.3c-0.3-0.1-0.6-0.2-0.9-0.3s-0.6-0.2-0.9-0.3s-0.5-0.3-0.8-0.5c-0.2-0.2-0.4-0.5-0.5-0.8
			c-0.1-0.3-0.2-0.7-0.2-1.1c0-0.4,0.1-0.7,0.2-1c0.1-0.3,0.3-0.6,0.6-0.9c0.3-0.3,0.6-0.5,1-0.6c0.4-0.2,0.8-0.2,1.3-0.2
			c0.6,0,1.1,0.1,1.5,0.3s0.9,0.4,1.2,0.8L429.7,117z"/>
		<path id="XMLID_31_" d="M436.7,118.9c0,0.1,0,0.2,0,0.3c0,0.1-0.1,0.2-0.1,0.2l-3.8,5.1h3.9v1h-5.3V125c0-0.1,0-0.1,0-0.2
			s0.1-0.2,0.1-0.2l3.9-5.1h-3.8v-1h5.3V118.9z"/>
		<path id="XMLID_33_" d="M443.1,119.7c0,0.1-0.1,0.1-0.1,0.1c0,0-0.1,0-0.2,0s-0.1,0-0.2-0.1c-0.1-0.1-0.2-0.1-0.3-0.2
			c-0.1-0.1-0.3-0.1-0.5-0.2c-0.2-0.1-0.4-0.1-0.7-0.1c-0.3,0-0.7,0.1-0.9,0.2c-0.3,0.1-0.5,0.3-0.7,0.5s-0.3,0.5-0.4,0.8
			c-0.1,0.3-0.1,0.7-0.1,1.1c0,0.4,0,0.8,0.1,1.1c0.1,0.3,0.2,0.6,0.4,0.8c0.2,0.2,0.4,0.4,0.6,0.5c0.3,0.1,0.5,0.2,0.9,0.2
			c0.3,0,0.6,0,0.7-0.1c0.2-0.1,0.4-0.2,0.5-0.2c0.1-0.1,0.2-0.2,0.3-0.2s0.2-0.1,0.3-0.1c0.1,0,0.2,0,0.2,0.1l0.3,0.5
			c-0.3,0.4-0.7,0.7-1.2,0.8c-0.5,0.2-1,0.3-1.5,0.3c-0.4,0-0.9-0.1-1.2-0.2c-0.4-0.2-0.7-0.4-1-0.7s-0.5-0.7-0.7-1.1
			s-0.2-1-0.2-1.5c0-0.5,0.1-1,0.2-1.5c0.1-0.4,0.4-0.8,0.6-1.2c0.3-0.3,0.6-0.6,1-0.8c0.4-0.2,0.9-0.3,1.4-0.3
			c0.5,0,0.9,0.1,1.3,0.2s0.7,0.4,1,0.7L443.1,119.7z"/>
		<path id="XMLID_35_" d="M449.8,118.9c0,0.1,0,0.2,0,0.3c0,0.1-0.1,0.2-0.1,0.2l-3.8,5.1h3.9v1h-5.3V125c0-0.1,0-0.1,0-0.2
			s0.1-0.2,0.1-0.2l3.9-5.1h-3.8v-1h5.3V118.9z"/>
		<path id="XMLID_37_" d="M453.4,127.6c0,0.1-0.1,0.2-0.2,0.2c-0.1,0.1-0.2,0.1-0.3,0.1H452l1.3-2.8l-2.9-6.7h1.1
			c0.1,0,0.2,0,0.3,0.1c0.1,0.1,0.1,0.1,0.1,0.2l1.9,4.5c0,0.1,0.1,0.2,0.1,0.3c0,0.1,0.1,0.2,0.1,0.3c0-0.1,0.1-0.2,0.1-0.3
			c0-0.1,0.1-0.2,0.1-0.3l1.8-4.5c0-0.1,0.1-0.1,0.1-0.2c0.1,0,0.1-0.1,0.2-0.1h1L453.4,127.6z"/>
		<path id="XMLID_39_" d="M460.6,125.6c-0.6,0-1-0.2-1.3-0.5c-0.3-0.3-0.5-0.8-0.5-1.4v-4.3H458c-0.1,0-0.1,0-0.2-0.1
			c-0.1,0-0.1-0.1-0.1-0.2v-0.5l1.2-0.1l0.3-2.2c0-0.1,0-0.1,0.1-0.2c0.1,0,0.1-0.1,0.2-0.1h0.6v2.4h2v0.9h-2v4.3
			c0,0.3,0.1,0.5,0.2,0.7s0.3,0.2,0.6,0.2c0.1,0,0.2,0,0.3-0.1c0.1,0,0.2-0.1,0.2-0.1s0.1-0.1,0.2-0.1c0,0,0.1-0.1,0.1-0.1
			c0.1,0,0.1,0,0.2,0.1l0.4,0.6c-0.2,0.2-0.5,0.4-0.8,0.5C461.2,125.6,460.9,125.6,460.6,125.6z"/>
	</g>
</g>
</svg>
