<svg xmlns="http://www.w3.org/2000/svg" viewBox="0 0 1408 670.13"><defs><style>.cls-1{font-size:30px;font-family:Verdana-Bold, Verdana;letter-spacing:0.01em;}.cls-1,.cls-72{fill:#231f20;}.cls-1,.cls-11{font-weight:700;}.cls-2{letter-spacing:0.01em;}.cls-3{letter-spacing:0em;}.cls-4{letter-spacing:-0.01em;}.cls-5{letter-spacing:0.01em;}.cls-10,.cls-6{fill:#fff;}.cls-49,.cls-63,.cls-7{fill:#93278f;}.cls-8{fill:#e9d4e9;}.Demand,.Supply,.cls-62,.cls-66,.cls-67,.cls-68,.cls-69,.cls-70,.cls-71,.cls-73,.cls-74,.cls-75,.cls-9{fill:none;}.cls-9{stroke:#666;stroke-dasharray:8;}.Demand,.Supply,.cls-10,.cls-62,.cls-66,.cls-67,.cls-68,.cls-69,.cls-70,.cls-71,.cls-73,.cls-74,.cls-75,.cls-9{stroke-miterlimit:10;}.Supply{stroke:#ed1e79;}.Demand,.Supply{stroke-width:3px;}.Demand,.cls-69,.cls-70,.cls-75{stroke:#009245;}.cls-10{stroke:#b3b3b3;}.cls-11{font-size:48px;font-family:Roboto-Bold, Roboto;letter-spacing:-0.01em;}.cls-12{letter-spacing:0em;}.cls-13{letter-spacing:-0.01em;}.cls-14{letter-spacing:0em;}.cls-15{letter-spacing:0.01em;}.cls-16{letter-spacing:-0.02em;}.cls-17{letter-spacing:0em;}.cls-18{letter-spacing:0.01em;}.cls-19{letter-spacing:0em;}.cls-20{letter-spacing:0.01em;}.cls-21{letter-spacing:-0.01em;}.cls-22{letter-spacing:-0.01em;}.cls-23{letter-spacing:-0.01em;}.cls-24{letter-spacing:0.01em;}.cls-25{letter-spacing:-0.01em;}.cls-26{letter-spacing:0.01em;}.cls-27{letter-spacing:0.02em;}.cls-28{letter-spacing:0em;}.cls-29{letter-spacing:0.01em;}.cls-30{letter-spacing:-0.01em;}.cls-31,.cls-32,.cls-33,.cls-34,.cls-35,.cls-46{font-size:24px;}.cls-31,.cls-32,.cls-33,.cls-34,.cls-35,.cls-46,.cls-49,.cls-63{font-family:Roboto-Regular, Roboto;}.cls-31{letter-spacing:-0.01em;}.cls-32{letter-spacing:-0.02em;}.cls-33{letter-spacing:-0.02em;}.cls-34{letter-spacing:0.01em;}.cls-35{letter-spacing:0em;}.cls-36{letter-spacing:0.01em;}.cls-37{letter-spacing:-0.02em;}.cls-38{letter-spacing:-0.01em;}.cls-39{letter-spacing:0em;}.cls-40{letter-spacing:-0.01em;}.cls-41{letter-spacing:0em;}.cls-42{letter-spacing:0em;}.cls-43{letter-spacing:0.01em;}.cls-44{letter-spacing:0.01em;}.cls-45{letter-spacing:0.01em;}.cls-46{letter-spacing:0em;}.cls-47{letter-spacing:0.01em;}.cls-48{letter-spacing:0em;}.cls-49,.cls-63{font-size:21px;}.cls-49,.cls-65{letter-spacing:-0.01em;}.cls-50{letter-spacing:-0.02em;}.cls-51{letter-spacing:-0.01em;}.cls-52{letter-spacing:0.01em;}.cls-53{letter-spacing:-0.01em;}.cls-54{letter-spacing:-0.01em;}.cls-55{letter-spacing:0.01em;}.cls-56{letter-spacing:0.01em;}.cls-57{letter-spacing:0.01em;}.cls-58{letter-spacing:0em;}.cls-59{letter-spacing:0.02em;}.cls-60{letter-spacing:0em;}.cls-61{letter-spacing:0.01em;}.cls-62,.cls-68,.cls-74{stroke:#000;}.cls-63{letter-spacing:-0.02em;}.cls-64{letter-spacing:-0.02em;}.cls-66,.cls-67,.cls-73{stroke:red;}.cls-67{stroke-dasharray:4.2 4.2;}.cls-68{stroke-dasharray:3.94 3.94;}.cls-70{stroke-dasharray:4.17 4.17;}.cls-71{stroke:#231f20;}.cls-73{stroke-dasharray:4.06 4.06;}.cls-74{stroke-dasharray:3.96 3.96;}.cls-75{stroke-dasharray:4.05 4.05;}</style></defs><title>deadweight-loss-tax-rate-effect</title><g id="deadweight-loss-taxation"><g id="D1"><text class="cls-1" transform="matrix(0.01, -0.99, 1, 0.01, 33.75, 595.37)">P<tspan class="cls-2" x="22.27" y="0">r</tspan><tspan class="cls-3" x="37.45" y="0">i</tspan><tspan class="cls-4" x="47.57" y="0">c</tspan><tspan class="cls-5" x="64.78" y="0">e</tspan></text></g></g><g id="ab5-deadweight-loss-tax-rate-effect"><g id="img1"><rect class="cls-6" y="29.63" width="698" height="640.51" rx="20" ry="20"/><g id="_Group_" data-name="&lt;Group&gt;"><path class="cls-7" d="M321,348.52,112.55,557a2,2,0,0,0-1.78-1.08,1.83,1.83,0,0,0-.77.16V139.7a2,2,0,0,0,2-.24Z"/><path class="cls-8" d="M110.23,138.7V555.07a2,2,0,0,0-1.23,1.84,2.19,2.19,0,0,0,0,.36H42.55v-420H109A2,2,0,0,0,110.23,138.7Z"/></g><line class="cls-9" x1="110.23" y1="137.08" x2="110.23" y2="557.27"/><line class="Supply" x1="44" y1="624.77" x2="563" y2="105.77"/><line class="Demand" x1="42.25" y1="68.52" x2="600.75" y2="627.02"/><circle class="cls-10" cx="111" cy="136.85" r="2"/><circle class="cls-10" cx="111" cy="556.91" r="2"/><circle class="cls-10" cx="321" cy="346.77" r="2"/><text class="cls-11" transform="translate(442.5 23.94) scale(0.58)">T<tspan class="cls-12" x="29.16" y="0">a</tspan><tspan class="cls-13" x="54.89" y="0">x</tspan><tspan class="cls-14" x="78.9" y="0"> </tspan><tspan class="cls-15" x="90.91" y="0">R</tspan><tspan class="cls-12" x="121.78" y="0">a</tspan><tspan class="cls-16" x="147.51" y="0">t</tspan><tspan class="cls-17" x="162.95" y="0">e</tspan><tspan class="cls-14" x="188.68" y="0"> </tspan><tspan class="cls-18" x="200.69" y="0">A</tspan><tspan class="cls-19" x="233.28" y="0">ff</tspan><tspan class="cls-17" x="267.58" y="0">e</tspan><tspan class="cls-20" x="293.31" y="0">c</tspan><tspan class="cls-16" x="319.04" y="0">t</tspan><tspan class="cls-21" x="334.48" y="0">s</tspan><tspan class="cls-14" x="358.49" y="0"> </tspan><tspan class="cls-22" x="370.5" y="0">S</tspan><tspan class="cls-23" x="399.66" y="0">i</tspan><tspan class="cls-13" x="411.66" y="0">z</tspan><tspan class="cls-17" x="435.68" y="0">e</tspan><tspan class="cls-14" x="461.41" y="0"> </tspan><tspan class="cls-24" x="473.41" y="0">o</tspan><tspan class="cls-19" x="500.86" y="0">f</tspan><tspan class="cls-14" x="518.01" y="0"> </tspan><tspan class="cls-25" x="530.02" y="0">D</tspan><tspan class="cls-17" x="560.89" y="0">e</tspan><tspan class="cls-12" x="586.62" y="0">a</tspan><tspan class="cls-26" x="612.35" y="0">d</tspan><tspan class="cls-27" x="639.79" y="0">w</tspan><tspan class="cls-17" x="675.81" y="0">e</tspan><tspan class="cls-23" x="701.54" y="0">i</tspan><tspan class="cls-28" x="713.55" y="0">g</tspan><tspan class="cls-29" x="740.99" y="0">h</tspan><tspan class="cls-16" x="768.44" y="0">t</tspan><tspan class="cls-14" x="783.88" y="0"> </tspan><tspan class="cls-30" x="795.88" y="0">L</tspan><tspan class="cls-24" x="821.61" y="0">o</tspan><tspan class="cls-21" x="849.06" y="0">ss</tspan></text><text class="cls-31" transform="translate(7 564.1)">P</text><text class="cls-32" transform="translate(22 572.09) scale(0.58)">s</text><text class="cls-31" transform="translate(7 349.1)">P</text><text class="cls-33" transform="translate(22 357.09) scale(0.58)">m</text><text class="cls-31" transform="translate(7 149.1)">P</text><text class="cls-34" transform="translate(22 157.09) scale(0.58)">b</text><text class="cls-35" transform="translate(247.32 90.77)">H<tspan class="cls-36" x="17" y="0">i</tspan><tspan class="cls-37" x="23" y="0">g</tspan><tspan class="cls-38" x="36" y="0">h</tspan><tspan class="cls-39" x="49" y="0"> </tspan><tspan class="cls-40" x="55" y="0">T</tspan><tspan class="cls-41" x="69" y="0">a</tspan><tspan class="cls-42" x="82" y="0">x</tspan><tspan class="cls-39" x="94" y="0"> </tspan><tspan class="cls-43" x="100" y="0">R</tspan><tspan class="cls-41" x="115" y="0">a</tspan><tspan class="cls-44" x="128" y="0">t</tspan><tspan class="cls-45" x="136" y="0">e</tspan></text></g><g id="img2"><rect class="cls-6" x="710" y="29.63" width="698" height="640.51" rx="20" ry="20"/><g id="_Group_2" data-name="&lt;Group&gt;"><polygon class="cls-8" points="752.55 408.27 752.55 290.27 753 290.27 970.5 290.27 970.5 408.27 752.55 408.27"/><polygon id="triangle-dw" class="cls-7" points="1030.5 347.27 971 406.77 970 406.77 970 288.77 971 288.77 971.5 288.27 1030.5 347.27"/></g><line class="cls-9" x1="970.5" y1="288.27" x2="970.5" y2="409.27"/><line class="Supply" x1="754" y1="624.77" x2="1273" y2="105.77"/><line class="Demand" x1="752.25" y1="68.52" x2="1310.75" y2="627.02"/><circle class="cls-10" cx="971" cy="288.77" r="2"/><circle class="cls-10" cx="971" cy="406.77" r="2"/><circle class="cls-10" cx="1031" cy="346.77" r="2"/><text class="cls-31" transform="translate(717 409.1)">P</text><text class="cls-32" transform="translate(732 417.09) scale(0.58)">s</text><text class="cls-31" transform="translate(717 349.1)">P</text><text class="cls-33" transform="translate(732 357.09) scale(0.58)">m</text><text class="cls-31" transform="translate(717 291.1)">P</text><text class="cls-34" transform="translate(732 299.09) scale(0.58)">b</text><text class="cls-46" transform="translate(959.81 90.77)">L<tspan class="cls-47" x="13" y="0">o</tspan><tspan class="cls-48" x="27" y="0">w</tspan><tspan class="cls-39" x="45" y="0"> </tspan><tspan class="cls-40" x="51" y="0">T</tspan><tspan class="cls-41" x="65" y="0">a</tspan><tspan class="cls-42" x="78" y="0">x</tspan><tspan class="cls-39" x="90" y="0"> </tspan><tspan class="cls-43" x="96" y="0">R</tspan><tspan class="cls-41" x="111" y="0">a</tspan><tspan class="cls-44" x="124" y="0">t</tspan><tspan class="cls-45" x="132" y="0">e</tspan></text></g><g id="larger_deadweight_loss_text" data-name="larger deadweight loss text"><text class="cls-49" transform="translate(174.16 182.46)">L<tspan class="cls-50" x="11" y="0">a</tspan><tspan class="cls-51" x="22" y="0">r</tspan><tspan class="cls-52" x="29" y="0">g</tspan><tspan class="cls-53" x="41" y="0">e</tspan><tspan class="cls-51" x="52" y="0">r</tspan><tspan class="cls-54" x="59" y="0"> </tspan><tspan class="cls-55" x="64" y="0">D</tspan><tspan class="cls-53" x="78" y="0">e</tspan><tspan class="cls-50" x="89" y="0">a</tspan><tspan class="cls-56" x="100" y="0">d</tspan><tspan class="cls-57" x="112" y="0">w</tspan><tspan class="cls-53" x="128" y="0">e</tspan><tspan class="cls-58" x="139" y="0">i</tspan><tspan class="cls-52" x="144" y="0">g</tspan><tspan class="cls-59" x="156" y="0">h</tspan><tspan class="cls-44" x="168" y="0">t</tspan><tspan x="65" y="25.2">L</tspan><tspan class="cls-60" x="76" y="25.2">o</tspan><tspan class="cls-61" x="88" y="25.2">ss</tspan></text><line class="cls-62" x1="260.5" y1="219.27" x2="214.8" y2="288.29"/><polygon points="213.26 283.9 215.48 287.26 219.43 287.99 211.5 293.27 213.26 283.9"/></g><g id="smaller_deadweight_loss_text" data-name="smaller deadweight loss text"><text class="cls-63" transform="translate(945.16 221.46)">S<tspan class="cls-64" x="12" y="0">m</tspan><tspan class="cls-50" x="30" y="0">a</tspan><tspan class="cls-58" x="41" y="0">ll</tspan><tspan class="cls-53" x="51" y="0">e</tspan><tspan class="cls-51" x="62" y="0">r</tspan><tspan class="cls-54" x="69" y="0"> </tspan><tspan class="cls-55" x="74" y="0">D</tspan><tspan class="cls-53" x="88" y="0">e</tspan><tspan class="cls-50" x="99" y="0">a</tspan><tspan class="cls-56" x="110" y="0">d</tspan><tspan class="cls-57" x="122" y="0">w</tspan><tspan class="cls-53" x="138" y="0">e</tspan><tspan class="cls-58" x="149" y="0">i</tspan><tspan class="cls-52" x="154" y="0">g</tspan><tspan class="cls-59" x="166" y="0">h</tspan><tspan class="cls-44" x="178" y="0">t</tspan><tspan class="cls-65"><tspan x="70" y="25.2">L</tspan><tspan class="cls-60" x="81" y="25.2">o</tspan><tspan class="cls-61" x="93" y="25.2">ss</tspan></tspan></text><line class="cls-62" x1="1036.5" y1="258.27" x2="990.8" y2="327.29"/><polygon points="989.26 322.9 991.48 326.26 995.43 326.99 987.5 332.27 989.26 322.9"/></g><g id="Layer_47" data-name="Layer 47"><line class="cls-66" x1="43" y1="557.27" x2="45" y2="557.27"/><line class="cls-67" x1="49.2" y1="557.27" x2="105.9" y2="557.27"/><line class="cls-66" x1="108" y1="557.27" x2="110" y2="557.27"/><line class="cls-62" x1="42.5" y1="347.27" x2="44.5" y2="347.27"/><line class="cls-68" x1="48.44" y1="347.27" x2="314.53" y2="347.27"/><line class="cls-62" x1="316.5" y1="347.27" x2="318.5" y2="347.27"/><line class="cls-69" x1="43" y1="137.27" x2="45" y2="137.27"/><line class="cls-70" x1="49.17" y1="137.27" x2="105.42" y2="137.27"/><line class="cls-69" x1="107.5" y1="137.27" x2="109.5" y2="137.27"/><line class="cls-71" x1="42.55" y1="627.48" x2="42.55" y2="43.5"/><path class="cls-72" d="M42.55,37.47A30.22,30.22,0,0,0,47.31,46l-4.76-1.72L37.8,46A30.2,30.2,0,0,0,42.55,37.47Z"/><polyline class="cls-71" points="43.29 627.48 262.33 627.48 682.17 627.48"/><path class="cls-72" d="M688.2,627.48a30.22,30.22,0,0,0-8.55,4.76l1.72-4.76-1.72-4.75A30.2,30.2,0,0,0,688.2,627.48Z"/><line class="cls-71" x1="752.55" y1="627.48" x2="752.55" y2="43.5"/><path class="cls-72" d="M752.55,37.47A30.22,30.22,0,0,0,757.31,46l-4.76-1.72L747.8,46A30.2,30.2,0,0,0,752.55,37.47Z"/><polyline class="cls-71" points="753.29 627.48 972.33 627.48 1392.17 627.48"/><path class="cls-72" d="M1398.2,627.48a30.22,30.22,0,0,0-8.55,4.76l1.72-4.76-1.72-4.75A30.2,30.2,0,0,0,1398.2,627.48Z"/><line class="cls-66" x1="752.5" y1="407.27" x2="754.5" y2="407.27"/><line class="cls-73" x1="758.56" y1="407.27" x2="967.47" y2="407.27"/><line class="cls-66" x1="969.5" y1="407.27" x2="971.5" y2="407.27"/><line class="cls-62" x1="752.5" y1="347.27" x2="754.5" y2="347.27"/><line class="cls-74" x1="758.46" y1="347.27" x2="1025.52" y2="347.27"/><line class="cls-62" x1="1027.5" y1="347.27" x2="1029.5" y2="347.27"/><line class="cls-69" x1="753" y1="289.27" x2="755" y2="289.27"/><line class="cls-75" x1="759.05" y1="289.27" x2="967.48" y2="289.27"/><line class="cls-69" x1="969.5" y1="289.27" x2="971.5" y2="289.27"/></g></g></svg>