<svg id="market-equilibrium" xmlns="http://www.w3.org/2000/svg" viewBox="0 0 714 655"><defs><style>.cls-1{fill:#fff;}.cls-14,.cls-16,.cls-2,.cls-41{fill:none;}.cls-2{stroke:#093;}.cls-14,.cls-16,.cls-2,.cls-40,.cls-41{stroke-miterlimit:10;}.cls-16,.cls-2{stroke-width:2px;}.cls-3,.cls-9{font-size:30px;font-family:Verdana-Bold, Verdana;font-weight:700;}.cls-15,.cls-3,.cls-9{fill:#231f20;}.cls-3{letter-spacing:0.01em;}.cls-4{letter-spacing:0em;}.cls-5{letter-spacing:0.01em;}.cls-6{letter-spacing:0.01em;}.cls-7{letter-spacing:0.02em;}.cls-8{letter-spacing:-0.01em;}.cls-9{letter-spacing:0.01em;}.cls-10{letter-spacing:0.01em;}.cls-11{letter-spacing:0em;}.cls-12{letter-spacing:-0.01em;}.cls-13{letter-spacing:0.01em;}.cls-14{stroke:#231f20;stroke-width:0.8px;}.cls-16{stroke:red;}.cls-17,.cls-28{font-size:30.03px;}.cls-17,.cls-28,.cls-42{font-family:Verdana, Verdana;}.cls-17{letter-spacing:-0.01em;}.cls-18{letter-spacing:0em;}.cls-19{letter-spacing:0.01em;}.cls-20{letter-spacing:0.01em;}.cls-21{letter-spacing:0em;}.cls-22{letter-spacing:0.01em;}.cls-23{letter-spacing:0.01em;}.cls-24{letter-spacing:0em;}.cls-25{letter-spacing:-0.01em;}.cls-26{letter-spacing:0em;}.cls-27{letter-spacing:0.01em;}.cls-28{letter-spacing:-0.01em;}.cls-29{letter-spacing:0em;}.cls-30{letter-spacing:0.01em;}.cls-31{letter-spacing:0.01em;}.cls-32{letter-spacing:0em;}.cls-33{letter-spacing:0.01em;}.cls-34{letter-spacing:0.01em;}.cls-35{letter-spacing:0.02em;}.cls-36{letter-spacing:0em;}.cls-37{letter-spacing:0.01em;}.cls-38{letter-spacing:-0.01em;}.cls-39{letter-spacing:0.01em;}.cls-40,.cls-41{stroke:#000;}.cls-42{font-size:18px;letter-spacing:-0.01em;}.cls-43{letter-spacing:0.01em;}.cls-44{letter-spacing:0.02em;}.cls-45{letter-spacing:0.02em;}.cls-46{letter-spacing:0.02em;}.cls-47{letter-spacing:-0.01em;}.cls-48{letter-spacing:-0.02em;}.cls-49{letter-spacing:-0.02em;}.cls-50{letter-spacing:-0.01em;}.cls-51{letter-spacing:-0.02em;}.cls-52{letter-spacing:0em;}.cls-53{letter-spacing:0.03em;}</style></defs><title>market-equilibrium</title><g id="market-equilibrium-2" data-name="market-equilibrium"><rect class="cls-1" width="714" height="655" rx="12" ry="12"/><line class="cls-2" x1="545.79" y1="578.18" x2="79.61" y2="112"/><text class="cls-3" transform="translate(298.43 641.16) scale(0.93 1)">Q<tspan class="cls-4" x="25.73" y="0">u</tspan><tspan class="cls-5" x="47.17" y="0">a</tspan><tspan class="cls-4" x="67.54" y="0">n</tspan><tspan class="cls-6" x="88.98" y="0">t</tspan><tspan class="cls-7" x="102.91" y="0">i</tspan><tspan class="cls-6" x="113.64" y="0">t</tspan><tspan class="cls-8" x="127.57" y="0">y</tspan></text><text class="cls-9" transform="matrix(0.01, -0.99, 1, 0.01, 34.25, 351.1)">P<tspan class="cls-10" x="22.27" y="0">r</tspan><tspan class="cls-11" x="37.45" y="0">i</tspan><tspan class="cls-12" x="47.57" y="0">c</tspan><tspan class="cls-13" x="64.78" y="0">e</tspan></text><line class="cls-14" x1="43.05" y1="613.22" x2="43.05" y2="28.05"/><path class="cls-15" d="M43.05,23.2a24.28,24.28,0,0,0,3.82,6.87l-3.82-1.38-3.82,1.38A24.26,24.26,0,0,0,43.05,23.2Z"/><line class="cls-14" x1="43.79" y1="613.22" x2="683.85" y2="613.22"/><path class="cls-15" d="M688.7,613.22a24.28,24.28,0,0,0-6.87,3.82l1.38-3.82-1.38-3.82A24.26,24.26,0,0,0,688.7,613.22Z"/><line class="cls-16" x1="72.81" y1="578.11" x2="538.99" y2="111.93"/><text class="cls-17" transform="translate(106.69 123.31) rotate(45)">M<tspan class="cls-18" x="25" y="0">a</tspan><tspan class="cls-19" x="43" y="0">r</tspan><tspan class="cls-20" x="56" y="0">k</tspan><tspan class="cls-21" x="74" y="0">e</tspan><tspan class="cls-22" x="92" y="0">t</tspan><tspan class="cls-23" x="104" y="0"> </tspan><tspan class="cls-24" x="115" y="0">D</tspan><tspan class="cls-21" x="138" y="0">e</tspan><tspan class="cls-25" x="156" y="0">m</tspan><tspan class="cls-18" x="185" y="0">a</tspan><tspan class="cls-26" x="203" y="0">n</tspan><tspan class="cls-27" x="222" y="0">d</tspan></text><text class="cls-28" transform="translate(357.92 278.42) rotate(-45)">M<tspan class="cls-29" x="25" y="0">a</tspan><tspan class="cls-30" x="43" y="0">r</tspan><tspan class="cls-31" x="56" y="0">k</tspan><tspan class="cls-32" x="74" y="0">e</tspan><tspan class="cls-33" x="92" y="0">t</tspan><tspan class="cls-34" x="104" y="0"> </tspan><tspan class="cls-35" x="115" y="0">S</tspan><tspan class="cls-36" x="136" y="0">u</tspan><tspan class="cls-37" x="155" y="0">pp</tspan><tspan class="cls-38" x="193" y="0">l</tspan><tspan class="cls-39" x="201" y="0">y</tspan></text><circle class="cls-40" cx="309.5" cy="341.5" r="5"/><line class="cls-41" x1="328.04" y1="342" x2="372" y2="342"/><path d="M322,342a30.22,30.22,0,0,1,8.55,4.76L328.83,342l1.72-4.75A30.2,30.2,0,0,1,322,342Z"/><text class="cls-42" transform="translate(377.5 346.5)">M<tspan class="cls-43" x="15" y="0">a</tspan><tspan class="cls-44" x="26" y="0">r</tspan><tspan class="cls-45" x="34" y="0">k</tspan><tspan class="cls-46" x="45" y="0">e</tspan><tspan class="cls-47" x="56" y="0">t</tspan><tspan class="cls-48" x="63" y="0"> </tspan><tspan class="cls-49" x="69" y="0">E</tspan><tspan class="cls-50" x="80" y="0">q</tspan><tspan class="cls-51" x="91" y="0">u</tspan><tspan class="cls-52" x="102" y="0">ili</tspan><tspan class="cls-50" x="117" y="0">b</tspan><tspan class="cls-44" x="128" y="0">r</tspan><tspan class="cls-52" x="136" y="0">i</tspan><tspan class="cls-51" x="141" y="0">u</tspan><tspan class="cls-53" x="152" y="0">m</tspan></text></g></svg>