<svg id="perfectly-elastic-and-inelastic-demand" xmlns="http://www.w3.org/2000/svg" viewBox="0 0 1047.57 436"><defs><style>.cls-1{fill:#fff;}.Demand,.cls-2{fill:none;stroke-miterlimit:10;}.Demand{stroke:#009245;stroke-width:3px;}.cls-2{stroke:#231f20;}.cls-22,.cls-29,.cls-3{fill:#231f20;}.cls-36,.cls-37,.cls-4,.cls-5{font-size:24px;}.cls-22,.cls-29,.cls-35,.cls-36,.cls-37,.cls-4,.cls-5{font-family:Roboto-Regular, Roboto;}.cls-4{letter-spacing:-0.01em;}.cls-5{letter-spacing:-0.03em;}.cls-6{font-size:40px;font-family:Roboto-Bold, Roboto;font-weight:700;letter-spacing:0em;}.cls-7{letter-spacing:0.02em;}.cls-8{letter-spacing:0.02em;}.cls-9{letter-spacing:-0.02em;}.cls-10{letter-spacing:-0.01em;}.cls-11{letter-spacing:0.01em;}.cls-12{letter-spacing:-0.01em;}.cls-13{letter-spacing:0.01em;}.cls-14{letter-spacing:0.01em;}.cls-15{letter-spacing:-0.01em;}.cls-16{letter-spacing:0.02em;}.cls-17{letter-spacing:0em;}.cls-18{letter-spacing:-0.01em;}.cls-19{letter-spacing:-0.01em;}.cls-20{letter-spacing:0em;}.cls-21{letter-spacing:-0.01em;}.cls-22{font-size:19.87px;letter-spacing:0.01em;}.cls-23{letter-spacing:-0.01em;}.cls-24{letter-spacing:0em;}.cls-25{letter-spacing:-0.01em;}.cls-26{letter-spacing:0em;}.cls-27{letter-spacing:-0.03em;}.cls-28{letter-spacing:0.01em;}.cls-29{font-size:19.87px;letter-spacing:-0.02em;}.cls-30{letter-spacing:0.02em;}.cls-31{letter-spacing:0.01em;}.cls-32{letter-spacing:-0.01em;}.cls-33{letter-spacing:-0.02em;}.cls-34{fill:#ff0;}.cls-35{font-size:21.19px;letter-spacing:0em;}.cls-36{letter-spacing:-0.02em;}.cls-37{letter-spacing:-0.01em;}.cls-38{letter-spacing:0.01em;}</style></defs><title>perfectly-elastic-and-inelastic-demand</title><rect class="cls-1" width="518.57" height="428.5" rx="20" ry="20"/><line class="Demand" x1="82.57" y1="183.5" x2="454.57" y2="183.5"/><line class="cls-2" x1="81.16" y1="397.85" x2="81.16" y2="13.12"/><path class="cls-3" d="M81.16,7.09a30.22,30.22,0,0,0,4.76,8.55l-4.76-1.72-4.75,1.72A30.2,30.2,0,0,0,81.16,7.09Z"/><line class="cls-2" x1="81.65" y1="397.85" x2="502.74" y2="397.85"/><path class="cls-3" d="M508.77,397.85a30.22,30.22,0,0,0-8.55,4.76l1.72-4.76-1.72-4.75A30.19,30.19,0,0,0,508.77,397.85Z"/><text class="cls-4" transform="translate(53.92 184.34)">P</text><text class="cls-5" transform="translate(68.92 192.33) scale(0.58)">e</text><text class="cls-6" transform="translate(136.07 176.37) scale(0.58)">P<tspan class="cls-7" x="25.73" y="0">e</tspan><tspan class="cls-8" x="48.03" y="0">r</tspan><tspan class="cls-9" x="63.46" y="0">f</tspan><tspan class="cls-7" x="77.19" y="0">e</tspan><tspan class="cls-10" x="99.49" y="0">c</tspan><tspan class="cls-11" x="120.07" y="0">t</tspan><tspan class="cls-12" x="133.79" y="0">l</tspan><tspan class="cls-13" x="144.08" y="0">y</tspan><tspan class="cls-14" x="164.67" y="0"> </tspan><tspan class="cls-15" x="174.96" y="0">E</tspan><tspan class="cls-12" x="197.26" y="0">l</tspan><tspan class="cls-16" x="207.55" y="0">a</tspan><tspan class="cls-17" x="229.85" y="0">s</tspan><tspan class="cls-11" x="250.43" y="0">t</tspan><tspan class="cls-12" x="264.15" y="0">i</tspan><tspan class="cls-10" x="274.44" y="0">c</tspan><tspan class="cls-14" x="295.03" y="0"> </tspan><tspan class="cls-18" x="305.32" y="0">D</tspan><tspan class="cls-7" x="331.05" y="0">e</tspan><tspan class="cls-19" x="353.34" y="0">m</tspan><tspan class="cls-16" x="387.65" y="0">a</tspan><tspan class="cls-20" x="409.95" y="0">n</tspan><tspan class="cls-21" x="432.25" y="0">d</tspan></text><text class="cls-22" transform="translate(102.85 416.36) scale(0.93 1)">Q<tspan class="cls-23" x="13.94" y="0">u</tspan><tspan class="cls-24" x="24.66" y="0">a</tspan><tspan class="cls-25" x="35.38" y="0">n</tspan><tspan class="cls-26" x="46.1" y="0">t</tspan><tspan class="cls-27" x="52.53" y="0">i</tspan><tspan class="cls-26" x="56.82" y="0">t</tspan><tspan class="cls-28" x="63.25" y="0">y</tspan></text><text class="cls-29" transform="matrix(0.01, -0.99, 1, 0.01, 75.34, 376.61)">P<tspan class="cls-30" x="12.15" y="0">r</tspan><tspan class="cls-31" x="19.23" y="0">i</tspan><tspan class="cls-32" x="24.29" y="0">c</tspan><tspan class="cls-33" x="34.41" y="0">e</tspan></text><rect class="cls-34" x="51.96" y="7.29" width="21.19" height="21.19"/><text class="cls-35" transform="translate(57 24.18) scale(1.1 1)">1</text><rect class="cls-1" x="529" width="518.57" height="428.5" rx="20" ry="20"/><line class="Demand" x1="785.07" y1="398.93" x2="785.07" y2="108.07"/><line class="cls-2" x1="610.16" y1="397.85" x2="610.16" y2="13.12"/><path class="cls-3" d="M610.16,7.09a30.22,30.22,0,0,0,4.76,8.55l-4.76-1.72-4.75,1.72A30.2,30.2,0,0,0,610.16,7.09Z"/><line class="cls-2" x1="610.65" y1="397.85" x2="1031.74" y2="397.85"/><path class="cls-3" d="M1037.77,397.85a30.22,30.22,0,0,0-8.55,4.76l1.72-4.76-1.72-4.75A30.2,30.2,0,0,0,1037.77,397.85Z"/><text class="cls-36" transform="translate(777 421.5) scale(0.93 1)">Q</text><text class="cls-37" transform="translate(792 429.49) scale(0.54 0.58)">i</text><text class="cls-6" transform="translate(642.57 98.37) scale(0.58)">P<tspan class="cls-7" x="25.73" y="0">e</tspan><tspan class="cls-8" x="48.03" y="0">r</tspan><tspan class="cls-9" x="63.46" y="0">f</tspan><tspan class="cls-7" x="77.19" y="0">e</tspan><tspan class="cls-10" x="99.49" y="0">c</tspan><tspan class="cls-11" x="120.07" y="0">t</tspan><tspan class="cls-12" x="133.79" y="0">l</tspan><tspan class="cls-13" x="144.08" y="0">y</tspan><tspan class="cls-14" x="164.67" y="0"> </tspan><tspan class="cls-38" x="174.96" y="0">I</tspan><tspan class="cls-20" x="186.96" y="0">n</tspan><tspan class="cls-7" x="209.26" y="0">e</tspan><tspan class="cls-12" x="231.56" y="0">l</tspan><tspan class="cls-16" x="241.85" y="0">a</tspan><tspan class="cls-17" x="264.15" y="0">s</tspan><tspan class="cls-11" x="284.73" y="0">t</tspan><tspan class="cls-12" x="298.46" y="0">i</tspan><tspan class="cls-10" x="308.75" y="0">c</tspan><tspan class="cls-14" x="329.33" y="0"> </tspan><tspan class="cls-18" x="339.62" y="0">D</tspan><tspan class="cls-7" x="365.35" y="0">e</tspan><tspan class="cls-19" x="387.65" y="0">m</tspan><tspan class="cls-16" x="421.96" y="0">a</tspan><tspan class="cls-20" x="444.25" y="0">n</tspan><tspan class="cls-21" x="466.55" y="0">d</tspan></text><text class="cls-22" transform="translate(631.85 416.36) scale(0.93 1)">Q<tspan class="cls-23" x="13.94" y="0">u</tspan><tspan class="cls-24" x="24.66" y="0">a</tspan><tspan class="cls-25" x="35.38" y="0">n</tspan><tspan class="cls-26" x="46.1" y="0">t</tspan><tspan class="cls-27" x="52.53" y="0">i</tspan><tspan class="cls-26" x="56.82" y="0">t</tspan><tspan class="cls-28" x="63.25" y="0">y</tspan></text><text class="cls-29" transform="matrix(0.01, -0.99, 1, 0.01, 604.34, 376.61)">P<tspan class="cls-30" x="12.15" y="0">r</tspan><tspan class="cls-31" x="19.23" y="0">i</tspan><tspan class="cls-32" x="24.29" y="0">c</tspan><tspan class="cls-33" x="34.41" y="0">e</tspan></text><rect class="cls-34" x="580.96" y="7.29" width="21.19" height="21.19"/><text class="cls-35" transform="translate(586 24.18) scale(1.1 1)">2</text></svg>