<svg id="total-surplus" xmlns="http://www.w3.org/2000/svg" xmlns:xlink="http://www.w3.org/1999/xlink" viewBox="0 0 953.5 658.51"><defs><style>.Demand,.Supply,.cls-1,.cls-29,.cls-54{fill:none;}.cls-1{stroke:#000;}.Demand,.Supply,.cls-1,.cls-29,.cls-53,.cls-54{stroke-miterlimit:10;}.cls-2,.cls-53{fill:#fff;}.cls-3{fill:#e8f4d9;}.cls-4{fill:#fcc;}.cls-18,.cls-24,.cls-5{font-size:30px;}.cls-42,.cls-48,.cls-5,.cls-55,.cls-60{font-family:Roboto-Regular, Roboto;}.cls-5{letter-spacing:-0.02em;}.cls-6{letter-spacing:0.03em;}.cls-7{letter-spacing:0em;}.cls-8{letter-spacing:0.01em;}.cls-9{letter-spacing:-0.02em;}.cls-10{letter-spacing:0.02em;}.cls-11{letter-spacing:-0.02em;}.cls-12{letter-spacing:0em;}.cls-13{letter-spacing:-0.01em;}.cls-14{letter-spacing:-0.01em;}.cls-15{letter-spacing:0em;}.cls-16{letter-spacing:0.02em;}.cls-17{letter-spacing:0.01em;}.Supply{stroke:#ed1e79;}.Demand,.Supply{stroke-width:3px;}.Demand{stroke:#009245;}.cls-18,.cls-24,.cls-30{fill:#231f20;}.cls-18,.cls-24{font-family:Verdana-Bold, Verdana;}.cls-18,.cls-24,.cls-31,.cls-62{font-weight:700;}.cls-18{letter-spacing:0.01em;}.cls-19{letter-spacing:0em;}.cls-20{letter-spacing:0.01em;}.cls-21{letter-spacing:0.01em;}.cls-22{letter-spacing:0.02em;}.cls-23{letter-spacing:-0.01em;}.cls-24{letter-spacing:0.01em;}.cls-25{letter-spacing:0.01em;}.cls-26{letter-spacing:0em;}.cls-27{letter-spacing:-0.01em;}.cls-28{letter-spacing:0.01em;}.cls-29{stroke:#231f20;}.cls-31{font-size:48px;letter-spacing:-0.01em;}.cls-31,.cls-62{font-family:Roboto-Bold, Roboto;}.cls-32{letter-spacing:0.01em;}.cls-33{letter-spacing:-0.02em;}.cls-34{letter-spacing:0em;}.cls-35{letter-spacing:-0.01em;}.cls-36{letter-spacing:0em;}.cls-37{letter-spacing:-0.01em;}.cls-38{letter-spacing:0.01em;}.cls-39{letter-spacing:-0.01em;}.cls-40{letter-spacing:0.01em;}.cls-41{letter-spacing:-0.01em;}.cls-42,.cls-48,.cls-55,.cls-60,.cls-62{font-size:24px;}.cls-42{letter-spacing:0.01em;}.cls-43{letter-spacing:0.01em;}.cls-44{letter-spacing:0em;}.cls-45{letter-spacing:0em;}.cls-46{letter-spacing:-0.01em;}.cls-47{letter-spacing:0.02em;}.cls-48,.cls-59{letter-spacing:-0.01em;}.cls-49{letter-spacing:-0.01em;}.cls-50{letter-spacing:-0.02em;}.cls-51{letter-spacing:0.01em;}.cls-52{letter-spacing:-0.01em;}.cls-53,.cls-54{stroke:#b3b3b3;}.cls-54{stroke-dasharray:4;}.cls-55{letter-spacing:0.02em;}.cls-56{letter-spacing:0.01em;}.cls-57{letter-spacing:-0.02em;}.cls-58{letter-spacing:-0.01em;}.cls-60{letter-spacing:-0.01em;}.cls-61{letter-spacing:0.02em;}.cls-62{letter-spacing:0.01em;}.cls-63{letter-spacing:0.02em;}.cls-64{letter-spacing:0em;}.cls-65{letter-spacing:0.01em;}.cls-66{letter-spacing:-0.02em;}.cls-67{letter-spacing:0em;}.cls-68{letter-spacing:0.01em;}.cls-69{letter-spacing:-0.02em;}.cls-70{letter-spacing:0.02em;}.cls-71{letter-spacing:-0.01em;}.cls-72{letter-spacing:0.01em;}.cls-73{letter-spacing:0.01em;}.cls-74{letter-spacing:-0.02em;}.cls-75{letter-spacing:0.01em;}.cls-76{letter-spacing:0em;}.cls-77{letter-spacing:0em;}.cls-78{letter-spacing:-0.02em;}.cls-79{letter-spacing:0.02em;}.cls-80{letter-spacing:0.02em;}</style><symbol id="Braces" data-name="Braces" viewBox="0 0 65.83 561.81"><path class="cls-1" d="M.15,281.06c4.39,1.35,23.61-.41,31.24-25.26,1-3.4,3.06-11,4.42-51.15.95-27.84.9-51.21.65-82-.48-58.67-1-62.33.56-71.78,2.67-16,9.41-36.59,28.51-50.44"/><path class="cls-1" d="M.15,281.61c4.39-1.33,24.16-.61,31.69,24.27,1,3.4,3,11,4.22,51.17.84,27.84.7,51.21.32,82-.71,58.67-1.26,62.32.28,71.78,2.61,16,9.27,36.63,28.32,50.55"/></symbol></defs><title>total-surplus</title><rect class="cls-2" x="267.5" width="686" height="658.51" rx="20" ry="20"/><polygon class="cls-3" points="301.51 50.99 580.49 332.01 302.5 332 301.51 50.99"/><polygon class="cls-4" points="302.38 611.24 580.68 331.06 303.31 332.45 302.38 611.24"/><text class="cls-5" transform="translate(628.5 337.99) scale(0.58)">M<tspan class="cls-6" x="25.73" y="0">a</tspan><tspan class="cls-7" x="42.88" y="0">r</tspan><tspan class="cls-8" x="53.17" y="0">k</tspan><tspan class="cls-9" x="68.61" y="0">e</tspan><tspan class="cls-10" x="84.05" y="0">t</tspan><tspan class="cls-11" x="94.34" y="0"> </tspan><tspan class="cls-12" x="101.2" y="0">P</tspan><tspan class="cls-7" x="120.07" y="0">r</tspan><tspan class="cls-13" x="130.36" y="0">i</tspan><tspan class="cls-14" x="137.22" y="0">c</tspan><tspan class="cls-9" x="152.66" y="0">e</tspan><tspan class="cls-11" x="168.1" y="0"> </tspan><tspan class="cls-6" x="174.96" y="0">a</tspan><tspan class="cls-10" x="192.11" y="0">t</tspan><tspan class="cls-11" x="202.4" y="0"> </tspan><tspan class="cls-15" x="209.26" y="0">Eq</tspan><tspan class="cls-16" x="243.57" y="0">u</tspan><tspan class="cls-13" x="260.72" y="0">ili</tspan><tspan class="cls-17" x="281.3" y="0">b</tspan><tspan class="cls-7" x="298.46" y="0">r</tspan><tspan class="cls-13" x="308.75" y="0">i</tspan><tspan class="cls-16" x="315.61" y="0">u</tspan><tspan class="cls-11" x="332.76" y="0">m</tspan></text><line class="Supply" x1="303.5" y1="609" x2="822.5" y2="90"/><line class="Demand" x1="301.75" y1="52.75" x2="860.25" y2="611.25"/><text class="cls-18" transform="translate(334.79 639.66) scale(0.93 1)">Q<tspan class="cls-19" x="25.73" y="0">u</tspan><tspan class="cls-20" x="47.17" y="0">a</tspan><tspan class="cls-19" x="67.54" y="0">n</tspan><tspan class="cls-21" x="88.98" y="0">t</tspan><tspan class="cls-22" x="102.91" y="0">i</tspan><tspan class="cls-21" x="113.64" y="0">t</tspan><tspan class="cls-23" x="127.57" y="0">y</tspan></text><text class="cls-24" transform="matrix(0.01, -0.99, 1, 0.01, 293.25, 579.61)">P<tspan class="cls-25" x="22.27" y="0">r</tspan><tspan class="cls-26" x="37.45" y="0">i</tspan><tspan class="cls-27" x="47.57" y="0">c</tspan><tspan class="cls-28" x="64.78" y="0">e</tspan></text><line class="cls-29" x1="302.05" y1="611.72" x2="302.05" y2="27.74"/><path class="cls-30" d="M302.05,21.7a30.22,30.22,0,0,0,4.76,8.55l-4.76-1.72-4.75,1.72A30.2,30.2,0,0,0,302.05,21.7Z"/><polyline class="cls-29" points="302.79 611.72 521.83 611.72 941.67 611.72"/><path class="cls-30" d="M947.7,611.72a30.22,30.22,0,0,0-8.55,4.76l1.72-4.76L939.16,607A30.19,30.19,0,0,0,947.7,611.72Z"/><text class="cls-31" transform="translate(513 31.17) scale(0.58)">T<tspan class="cls-32" x="29.16" y="0">o</tspan><tspan class="cls-33" x="56.6" y="0">t</tspan><tspan class="cls-34" x="72.04" y="0">a</tspan><tspan class="cls-35" x="97.77" y="0">l</tspan><tspan class="cls-36" x="109.78" y="0"> </tspan><tspan class="cls-37" x="121.78" y="0">S</tspan><tspan class="cls-38" x="150.94" y="0">u</tspan><tspan class="cls-39" x="178.39" y="0">r</tspan><tspan class="cls-40" x="195.54" y="0">p</tspan><tspan class="cls-35" x="222.98" y="0">l</tspan><tspan class="cls-38" x="234.99" y="0">u</tspan><tspan class="cls-41" x="262.44" y="0">s</tspan></text><text class="cls-42" transform="translate(807.12 543.57) rotate(45)">D<tspan class="cls-43" x="16" y="0">e</tspan><tspan class="cls-44" x="29" y="0">m</tspan><tspan class="cls-45" x="50" y="0">a</tspan><tspan class="cls-46" x="63" y="0">n</tspan><tspan class="cls-47" x="76" y="0">d</tspan></text><text class="cls-48" transform="translate(768.68 134.6) rotate(-45)">S<tspan class="cls-49" x="14" y="0">u</tspan><tspan class="cls-50" x="27" y="0">pp</tspan><tspan class="cls-51" x="53" y="0">l</tspan><tspan class="cls-52" x="59" y="0">y</tspan></text><line class="cls-1" x1="617" y1="333" x2="598.97" y2="333"/><polygon points="601.78 329.3 600.21 333 601.78 336.7 593 333 601.78 329.3"/><line class="cls-53" x1="301.75" y1="52.75" x2="579.5" y2="332"/><polyline class="cls-54" points="302 331 581 331 581 611.86"/><text class="cls-55" transform="translate(357 281.5)">C<tspan class="cls-56" x="16" y="0">o</tspan><tspan class="cls-46" x="30" y="0">n</tspan><tspan class="cls-57" x="43" y="0">s</tspan><tspan class="cls-49" x="55" y="0">u</tspan><tspan class="cls-44" x="68" y="0">m</tspan><tspan class="cls-43" x="89" y="0">e</tspan><tspan class="cls-58" x="102" y="0">r</tspan><tspan class="cls-59"><tspan x="15.5" y="28.8">S</tspan><tspan class="cls-49" x="29.5" y="28.8">u</tspan><tspan class="cls-58" x="42.5" y="28.8">r</tspan><tspan class="cls-50" x="50.5" y="28.8">p</tspan><tspan class="cls-51" x="63.5" y="28.8">l</tspan><tspan class="cls-49" x="69.5" y="28.8">u</tspan><tspan class="cls-57" x="82.5" y="28.8">s</tspan></tspan></text><text class="cls-60" transform="translate(360.5 373.5)">P<tspan class="cls-58" x="15" y="0">r</tspan><tspan class="cls-56" x="23" y="0">o</tspan><tspan class="cls-47" x="37" y="0">d</tspan><tspan class="cls-49" x="51" y="0">u</tspan><tspan class="cls-61" x="64" y="0">c</tspan><tspan class="cls-43" x="77" y="0">e</tspan><tspan class="cls-58" x="90" y="0">r</tspan><tspan class="cls-59"><tspan x="9.5" y="28.8">S</tspan><tspan class="cls-49" x="23.5" y="28.8">u</tspan><tspan class="cls-58" x="36.5" y="28.8">r</tspan><tspan class="cls-50" x="44.5" y="28.8">p</tspan><tspan class="cls-51" x="57.5" y="28.8">l</tspan><tspan class="cls-49" x="63.5" y="28.8">u</tspan><tspan class="cls-57" x="76.5" y="28.8">s</tspan></tspan></text><text class="cls-62" transform="translate(27.5 266.51)">T<tspan class="cls-63" x="15" y="0">o</tspan><tspan class="cls-64" x="29" y="0">t</tspan><tspan class="cls-65" x="37" y="0">a</tspan><tspan class="cls-66" x="50" y="0">l</tspan><tspan class="cls-67" x="56" y="0"> </tspan><tspan class="cls-68" x="62" y="0">S</tspan><tspan class="cls-69" x="77" y="0">u</tspan><tspan class="cls-68" x="90" y="0">r</tspan><tspan class="cls-70" x="99" y="0">p</tspan><tspan class="cls-66" x="113" y="0">l</tspan><tspan class="cls-69" x="119" y="0">u</tspan><tspan class="cls-71" x="132" y="0">s</tspan><tspan class="cls-72"><tspan x="65" y="28.8">=</tspan></tspan><tspan class="cls-73"><tspan x="-27.5" y="57.6">C</tspan><tspan class="cls-63" x="-11.5" y="57.6">o</tspan><tspan class="cls-74" x="2.5" y="57.6">n</tspan><tspan class="cls-71" x="15.5" y="57.6">s</tspan><tspan class="cls-69" x="27.5" y="57.6">u</tspan><tspan class="cls-75" x="40.5" y="57.6">m</tspan><tspan class="cls-76" x="61.5" y="57.6">e</tspan><tspan class="cls-68" x="74.5" y="57.6">r</tspan><tspan class="cls-67" x="83.5" y="57.6"> </tspan><tspan class="cls-68" x="89.5" y="57.6">S</tspan><tspan class="cls-69" x="104.5" y="57.6">u</tspan><tspan class="cls-68" x="117.5" y="57.6">r</tspan><tspan class="cls-70" x="126.5" y="57.6">p</tspan><tspan class="cls-66" x="140.5" y="57.6">l</tspan><tspan class="cls-69" x="146.5" y="57.6">u</tspan><tspan class="cls-71" x="159.5" y="57.6">s</tspan></tspan><tspan class="cls-77"><tspan x="65.5" y="86.4">+</tspan></tspan><tspan class="cls-78"><tspan x="-22" y="115.2">P</tspan><tspan class="cls-68" x="-7" y="115.2">r</tspan><tspan class="cls-63" x="2" y="115.2">o</tspan><tspan class="cls-79" x="16" y="115.2">d</tspan><tspan class="cls-69" x="30" y="115.2">u</tspan><tspan class="cls-80" x="43" y="115.2">c</tspan><tspan class="cls-76" x="56" y="115.2">e</tspan><tspan class="cls-68" x="69" y="115.2">r</tspan><tspan class="cls-67" x="78" y="115.2"> </tspan><tspan class="cls-68" x="84" y="115.2">S</tspan><tspan class="cls-69" x="99" y="115.2">u</tspan><tspan class="cls-68" x="112" y="115.2">r</tspan><tspan class="cls-70" x="121" y="115.2">p</tspan><tspan class="cls-66" x="135" y="115.2">l</tspan><tspan class="cls-69" x="141" y="115.2">u</tspan><tspan class="cls-71" x="154" y="115.2">s</tspan></tspan></text><use width="65.83" height="561.81" transform="translate(202.47 50.6)" xlink:href="#Braces"/><circle class="cls-53" cx="581.5" cy="332" r="2"/></svg>